<?xml version="1.0" standalone="no"?>
<!DOCTYPE svg PUBLIC "-//W3C//DTD SVG 1.1//EN" "http://www.w3.org/Graphics/SVG/1.1/DTD/svg11.dtd" >
<svg xmlns="http://www.w3.org/2000/svg">
<metadata>
Created by FontForge 20120731 at Tue Nov 22 09:19:24 2016
 By admin
</metadata>
<defs>
<font id="iconfont" horiz-adv-x="1024" >
  <font-face 
    font-family="iconfont"
    font-weight="500"
    font-stretch="normal"
    units-per-em="1024"
    panose-1="2 0 6 3 0 0 0 0 0 0"
    ascent="896"
    descent="-128"
    x-height="792"
    bbox="-3 -212.12 1536 896"
    underline-thickness="0"
    underline-position="0"
    unicode-range="U+0078-E9F6"
  />
<missing-glyph 
 />
    <glyph glyph-name=".notdef" 
 />
    <glyph glyph-name=".notdef" 
 />
    <glyph glyph-name=".null" horiz-adv-x="0" 
 />
    <glyph glyph-name="nonmarkingreturn" horiz-adv-x="341" 
 />
    <glyph glyph-name="x" unicode="x" horiz-adv-x="1001" 
d="M281 543q-27 -1 -53 -1h-83q-18 0 -36.5 -6t-32.5 -18.5t-23 -32t-9 -45.5v-76h912v41q0 16 -0.5 30t-0.5 18q0 13 -5 29t-17 29.5t-31.5 22.5t-49.5 9h-133v-97h-438v97zM955 310v-52q0 -23 0.5 -52t0.5 -58t-10.5 -47.5t-26 -30t-33 -16t-31.5 -4.5q-14 -1 -29.5 -0.5
t-29.5 0.5h-32l-45 128h-439l-44 -128h-29h-34q-20 0 -45 1q-25 0 -41 9.5t-25.5 23t-13.5 29.5t-4 30v167h911zM163 247q-12 0 -21 -8.5t-9 -21.5t9 -21.5t21 -8.5q13 0 22 8.5t9 21.5t-9 21.5t-22 8.5zM316 123q-8 -26 -14 -48q-5 -19 -10.5 -37t-7.5 -25t-3 -15t1 -14.5
t9.5 -10.5t21.5 -4h37h67h81h80h64h36q23 0 34 12t2 38q-5 13 -9.5 30.5t-9.5 34.5q-5 19 -11 39h-368zM336 498v228q0 11 2.5 23t10 21.5t20.5 15.5t34 6h188q31 0 51.5 -14.5t20.5 -52.5v-227h-327z" />
    <glyph glyph-name="liebiao" unicode="&#xe601;" 
d="M893 768q29 0 49 -20t20 -49v-52q0 -29 -20 -48.5t-49 -19.5h-760q-29 0 -48.5 19.5t-19.5 48.5v52q0 29 19.5 49t48.5 20h760zM893 447q29 0 49 -19.5t20 -48.5v-52q0 -29 -20 -49t-49 -20h-760q-29 0 -48.5 20t-19.5 49v52q0 29 19.5 48.5t48.5 19.5h760zM893 127
q29 0 49 -20t20 -49v-52q0 -29 -20 -48.5t-49 -19.5h-760q-29 0 -48.5 19.5t-19.5 48.5v52q0 29 19.5 49t48.5 20h760z" />
    <glyph glyph-name="hui" unicode="&#x355d;" 
d="M961 127v-73l-317 -7q-15 0 -45 -0.5t-62.5 3.5t-65 14.5t-53.5 30.5q-15 14 -22 32.5t-9.5 40t-2.5 46.5v47v464h137v-36q8 5 18 7.5l18 4.5q9 2 18 2q30 4 71.5 8t89.5 6.5t101.5 2.5t107.5 -4v-81q-66 9 -121.5 11t-100.5 0t-82 -6.5t-66 -8.5q-16 -4 -27 -15
q-10 -8 -18.5 -22.5t-8.5 -39.5v-293v-65q2 -42 31.5 -59t63.5 -17zM236 601q-36 0 -62.5 23t-26.5 56q0 16 7.5 30t19 24.5t27.5 17t35 6.5q36 0 62 -22.5t26 -55.5t-26 -56t-62 -23zM163 568q28 -21 45.5 -34t30.5 -24t26 -23.5t33 -31.5q30 -30 29.5 -72.5t-18.5 -97.5
q-6 -18 -10 -29t-8 -21.5t-10.5 -23t-16.5 -34t-26 -54.5t-38 -83l-134 84q43 39 78 75q16 15 31 31.5t29 33t24.5 30.5t16.5 27q12 24 8.5 42.5t-13.5 31.5q-12 15 -30 26l-102 63z" />
    <glyph glyph-name="bao" unicode="&#x3584;" 
d="M732.5 155q-18.5 0 -34.5 6t-28 16.5t-18.5 25t-6.5 31t6.5 31t18.5 25t28 16.5t34.5 6t34 -6t27.5 -16.5t19 -25t7 -31t-7 -31t-19 -25t-27.5 -16.5t-34 -6zM200 531h551h-1q29 20 46 38q13 17 13.5 35t-31.5 34q-18 9 -60 10.5t-96.5 -2t-116.5 -11t-120 -16.5
t-107.5 -18t-77.5 -15v-55zM565 467v-78h271v-63h-271v-187h367v-81h-870v81h347v187h-241v63h241v78h-209v-17h-138v242h138v-29q30 4 86.5 10.5t123.5 13.5v70h154v-54q59 6 108 8.5t78 1.5q47 -2 84.5 -8t64.5 -17t42 -31t16 -51q1 -32 -17 -60t-41 -50q-27 -27 -60 -50
l-38 37v-16h-236z" />
    <glyph glyph-name="home" unicode="&#xe650;" 
d="M-3 289l515 400l515 -400v163l-515 399l-515 -399v-163zM125 303v-386h258v258h257v-258h258v386l-386 290l-387 -290v0z" />
    <glyph glyph-name="tianqiyubao" unicode="&#xe637;" 
d="M1017 268q0 62 -37 110t-94 63q-3 98 -71 167.5t-164 69.5q-55 0 -103.5 -25t-81.5 -68q-40 53 -105 53q-54 0 -92.5 -40t-38.5 -96q0 -7 1 -20q-17 3 -34 3q-80 0 -136 -58t-56 -140t56 -140t136 -58h648q71 0 121.5 52.5t50.5 126.5z" />
    <glyph glyph-name="phone" unicode="&#xe629;" 
d="M781 736h-537q-22 0 -37 -15t-15 -37v-793q0 -21 15 -36t37 -15h537q21 0 36 15t15 36v793q0 22 -15 37t-36 15zM768 -96h-512v128h512v-128zM768 96h-512v576h512v-576zM480 4h64v-64h-64v64z" />
    <glyph glyph-name="shanchu" unicode="&#xe61c;" 
d="M387 59v393q0 7 -5 12.5t-12.5 5.5t-13 -5.5t-5.5 -12.5v-393q0 -7 5.5 -12t13 -5t12.5 5t5 12zM530 59v393q0 7 -5.5 12.5t-12.5 5.5t-12.5 -5.5t-5.5 -12.5v-393q0 -7 5.5 -12t12.5 -5t12.5 5t5.5 12zM815.5 488q-7.5 0 -12.5 -5.5t-5 -12.5v-482q0 -15 -10.5 -25.5
t-25.5 -10.5h-500q-15 0 -25.5 10.5t-10.5 25.5v482q0 7 -5 12.5t-13 5.5q-13 0 -17 -14v0.5v0.5v-487q0 -30 20.5 -50.5t50.5 -20.5h500q29 0 50 20.5t21 50.5v482q0 7 -5 12.5t-12.5 5.5zM869 613h-206l-65 66q-6 5 -14 5h-1h-142h-1q-8 0 -14 -5l-65 -66h-206
q-7 0 -12.5 -5.5t-5.5 -13t5.5 -12.5t12.5 -5h214h0.5h0.5q8 0 14 6l66 65h124l66 -65q6 -6 14 -6h0.5h0.5h214q7 0 12.5 5t5.5 12.5t-5.5 13t-12.5 5.5zM673 59v393q0 7 -5.5 12.5t-13 5.5t-12.5 -5.5t-5 -12.5v-393q0 -7 5 -12t12.5 -5t13 5t5.5 12z" />
    <glyph glyph-name="iconziti09" unicode="&#xe612;" 
d="M884 209h-47q-11 -41 -33 -78l44 -43q21 -21 21 -50.5t-21 -50.5l-25 -25q-21 -21 -50.5 -21t-50.5 21l-44 44q-36 -21 -77 -32v-46q0 -29 -21 -50t-50 -21h-36q-29 0 -50 21t-21 50v46q-41 11 -78 32l-43 -44q-21 -21 -50.5 -21t-50.5 21l-25 25q-21 21 -21 50.5
t21 50.5l44 43q-22 37 -33 78h-47q-29 0 -50 21t-21 50v36q0 29 21 50t50 21h46q12 41 32 77l-42 42q-21 21 -21 50t21 50l25 25q21 21 50.5 21t50.5 -21l41 -41q37 23 80 34v48q0 29 21 50t50 21h36q29 0 50 -21t21 -50v-48q42 -11 80 -34l41 41q21 21 50.5 21t50.5 -21
l25 -25q21 -21 21 -50t-21 -50l-42 -42q20 -36 31 -77h47q29 0 50 -21t21 -50v-36q0 -29 -21 -50t-50 -21zM512 492q-81 0 -138 -57t-57 -138t57 -138.5t138 -57.5t138 57.5t57 138.5t-57 138t-138 57zM512 210q-37 0 -63 26t-26 63t26 63t63 26t63 -26t26 -63t-26 -63
t-63 -26z" />
    <glyph glyph-name="fanhui" unicode="&#xe607;" 
d="M738 642l-75 75l-350 -350v0l-74 -74v-1v0l75 -75v0l345 -345l74 74l-345 346z" />
    <glyph glyph-name="user" unicode="&#xe65a;" 
d="M317 236q83 -68 195 -68q106 0 195 68q122 -57 197 -171.5t75 -253.5h45q0 148 -77.5 270.5t-204.5 187.5q82 90 82 209q0 129 -91.5 221t-220.5 92t-220.5 -92t-91.5 -221q0 -121 82 -209q-127 -66 -204.5 -188.5t-77.5 -271.5h45q0 140 75 255t197 172zM244 478
q0 111 79 189.5t189 78.5t189 -78.5t79 -189.5q0 -110 -81 -191q-27 -23 -42 -33q-63 -43 -145 -43q-78 0 -145 43q-25 16 -42 33q-81 81 -81 191z" />
    <glyph glyph-name="qing" unicode="&#xe603;" 
d="M813 156q16 -106 -21 -224q-19 -62 -57 -78q-35 -12 -59 15q-21 29 -8 63q40 100 24 196q0 23 -15 38q-13 14 -49 26q-53 9 -158 2q-72 -2 -138 -14q0 -10 2 -30q35 2 110 7q88 5 156 1q35 -2 51 -31q14 -28 -5 -50q-16 -21 -48 -20q-67 5 -156 1q-67 -2 -99 -6
q0 -19 2 -39q31 3 92 6q80 5 144 1q35 -1 51 -30q14 -28 -5 -49q-16 -21 -48 -20q-61 2 -143 0q-59 -1 -88 -6v-1q-2 -41 -36 -60q-32 -16 -59 4q-25 20 -25 56q3 70 -3 160q-5 92 -11 118q-5 28 9 47q12 27 46 35q94 17 207 20t171 -6q77 -4 118 -46q40 -39 48 -86z
M857 318q-173 16 -400 8q-224 -6 -295 -17q-33 -4 -54 23q-18 28 -1 55.5t50 31.5q84 8 296 17q0 17 3 33h-2q-184 -2 -241 -12q-31 -3 -51 22q-16 26 -1 52q17 25 47 28q71 6 253 12v1q0 17 -1 32h-12q-210 -5 -274 -13q-34 -4 -54 22q-19 28 -1 55q19 28 50 32
q80 6 289 12h1q3 23 25 36q31 19 59 -2q17 -10 26 -32q140 0 258 -10q39 -2 54 -36q16 -30 -5 -55q-19 -22 -54 -21q-110 12 -245 13v-33q114 0 210 -9q36 -2 51 -32q14 -28 -6 -53q-18 -21 -49 -20q-95 9 -208 12q0 -15 -2 -32q157 2 287 -8q39 -2 55 -35q16 -31 -5 -55
q-19 -22 -53 -22z" />
    <glyph glyph-name="weather-qing" unicode="&#xe616;" 
d="M517.5 154q97.5 0 167 69t69.5 167t-69.5 167t-167 69t-167 -69t-69.5 -167t69.5 -167t167 -69zM500 97h50v-155h-50v155zM493 853h50v-155h-50v155zM808 418h179v-55h-179v55zM48 417h168v-54h-168v54zM215 54l-35 36l111 108l35 -35zM750 589l-34 35l111 108l34 -35z
M822 37l-125 127l39 39l125 -128zM282 587l-117 120l39 38l117 -120zM500 97h50v-155h-50v155zM493 853h50v-155h-50v155zM808 418h158v-48h-158v48zM69 417h147v-47h-147v47z" />
    <glyph glyph-name="iconfont14" unicode="&#xe6ff;" 
d="M512 896q-139 0 -257 -68.5t-186.5 -186.5t-68.5 -257t68.5 -257t186.5 -186.5t257 -68.5t257 68.5t186.5 186.5t68.5 257t-68.5 257t-186.5 186.5t-257 68.5zM512 848q192 0 328 -136t136 -328q0 -170 -110 -300q-44 106 -140 171t-214 65t-214 -65t-140 -171
q-110 130 -110 300q0 94 36.5 180t99 148.5t148.5 99t180 36.5zM195 45q35 101 121.5 164t195.5 63t196 -63t121 -164q-63 -59 -145 -92t-172 -33t-172 33t-145 92zM512 350q80 0 136 56t56 135.5t-56 136t-136 56.5t-136 -56.5t-56 -136t56 -135.5t136 -56zM512 686
q60 0 102 -42.5t42 -102t-42 -101.5t-102 -42t-102 42t-42 101.5t42 102t102 42.5z" />
    <glyph glyph-name="dingyue" unicode="&#xe68f;" 
d="M233.5 45q-19.5 0 -33 13.5t-13.5 32.5v674q0 20 13.5 33.5t33 13.5t33 -13.5t13.5 -33.5v-674q0 -19 -13.5 -32.5t-33 -13.5zM396 45q-19 0 -33 13.5t-14 32.5v582q0 19 14 33t33 14t33 -14t14 -33v-582q0 -19 -14 -32.5t-33 -13.5zM558 45v0q-19 0 -32.5 13.5
t-13.5 32.5l1 466q0 19 13.5 33t32.5 14v0q20 0 33.5 -14t13.5 -33l-1 -466q0 -19 -13.5 -32.5t-33.5 -13.5zM813 45q-16 0 -29 10t-17 26l-139 606q-4 19 6.5 35.5t29 20.5t35 -6t20.5 -29l139 -606q4 -19 -6 -35.5t-29 -20.5q-5 -1 -10 -1zM838 -212h-651q-77 0 -132 54.5
t-55 131.5v211q0 19 14 32.5t33 13.5t32.5 -13.5t13.5 -32.5v-211q0 -38 27.5 -65.5t66.5 -27.5h651q38 0 65.5 27.5t27.5 65.5v211q0 19 13.5 32.5t32.5 13.5t33 -13.5t14 -32.5v-211q0 -77 -54.5 -131.5t-131.5 -54.5z" />
    <glyph glyph-name="prev" unicode="&#xe72b;" 
d="M512 300l478 -273v546zM956 86l-375 214l375 214v-428zM34 300l478 -273v546zM478 86l-375 214l375 214v-428z" />
    <glyph glyph-name="shui" unicode="&#xe6fc;" 
d="M471 684q0 -1 2 -7q15 -60 -15 -139q-13 -36 -66 -113v0q-27 -40 -22 -87q5 -56 49.5 -91t101.5 -30q59 6 98 52t36 114q-3 40 -14 77.5t-27.5 66.5t-35.5 55t-38 44.5t-34.5 31.5t-25 19.5zM281 -84q-33 0 -64 26.5t-55 78.5q-4 9 0 17.5t8 0.5q30 -64 70.5 -86.5t81 0
t70.5 86.5q5 8 9 -0.5t0 -17.5q-24 -52 -55.5 -78.5t-64.5 -26.5zM512 -84q-34 0 -65 27t-55 78q-4 9 0.5 17.5t8.5 0.5q46 -98 111 -98t111 98q4 8 8.5 -0.5t0.5 -17.5q-24 -51 -55 -78t-65 -27zM743 -84q-33 0 -64.5 26.5t-55.5 78.5q-4 9 0 17.5t9 0.5q30 -64 70.5 -86.5
t81 0t70.5 86.5q4 8 8 -0.5t0 -17.5q-24 -52 -55 -78.5t-64 -26.5zM281 47q-33 0 -64 26.5t-55 78.5q-4 9 0 17.5t8 0.5q30 -64 70.5 -86.5t81 0t70.5 86.5q5 8 9 -0.5t0 -17.5q-24 -52 -55.5 -78.5t-64.5 -26.5zM512 47q-34 0 -65 27t-55 78q-4 9 0.5 17.5t8.5 -0.5
q46 -97 111 -97t111 97q4 9 8.5 0.5t0.5 -17.5q-24 -51 -55 -78t-65 -27zM743 47q-33 0 -64.5 26.5t-55.5 78.5q-4 9 0 17.5t9 0.5q30 -64 70.5 -86.5t81 0t70.5 86.5q4 8 8 -0.5t0 -17.5q-24 -52 -55 -78.5t-64 -26.5z" />
    <glyph glyph-name="weather-xiaoyuzhuanqing" unicode="&#xe613;" 
d="M533.5 624q-99.5 0 -170 -70.5t-70.5 -169.5t70.5 -169.5t170 -70.5t170 70.5t70.5 169.5t-70.5 169.5t-170 70.5zM533.5 662q12.5 0 21 8.5t8.5 20.5v116q0 12 -8.5 20.5t-21 8.5t-21 -8.5t-8.5 -20.5v-116q0 -12 8.5 -20.5t21 -8.5zM533.5 106q-12.5 0 -21 -8.5
t-8.5 -20.5v-116q0 -12 8.5 -20.5t21 -8.5t21 8.5t8.5 20.5v116q0 12 -8.5 20.5t-21 8.5zM956 413h-115q-12 0 -20.5 -8.5t-8.5 -20.5t8.5 -20.5t20.5 -8.5h115q12 0 20.5 8.5t8.5 20.5t-8.5 20.5t-20.5 8.5zM255 384q0 12 -8.5 20.5t-20.5 8.5h-115q-12 0 -20.5 -8.5
t-8.5 -20.5t8.5 -20.5t20.5 -8.5h115q12 0 20.5 8.5t8.5 20.5zM752 573q12 0 20 9l82 81q8 9 8 21t-8.5 20.5t-20.5 8.5t-20 -9l-82 -81q-8 -9 -8 -21t8.5 -20.5t20.5 -8.5zM296 188l-81 -81q-9 -9 -9 -21t8.5 -20.5t21 -8.5t20.5 8l82 82q8 8 8 20.5t-8.5 21t-20.5 8.5
t-21 -9zM772 188q-8 9 -20 9t-20.5 -8.5t-8.5 -21t8 -20.5l82 -82q8 -8 20 -8t20.5 8.5t8.5 20.5t-8 21zM296 582q9 -9 21 -9t20.5 8.5t8.5 20.5t-8 21l-82 81q-8 9 -20.5 9t-21 -8.5t-8.5 -20.5t9 -21z" />
    <glyph glyph-name="weather-mai" unicode="&#xe611;" 
d="M766 539q-42 75 -115.5 118t-159.5 43q-118 0 -207 -78q-80 -70 -102 -174q-61 -18 -100 -69.5t-39 -116.5q0 -72 47 -127.5t117 -66.5h542q97 0 166 69t69 167q0 93 -63 160.5t-155 74.5zM783 234q-8 -7 -18 -7q-12 0 -20 8q-44 48 -109.5 50.5t-113.5 -42.5v0
q-61 -56 -144 -56h-8q-87 3 -147 67q-8 8 -7.5 19.5t8.5 19t19.5 7t18.5 -8.5q45 -48 110 -50.5t113 42.5v0q64 60 152 56.5t148 -67.5q7 -8 6.5 -19t-8.5 -19z" />
    <glyph glyph-name="weather-xiala" unicode="&#xe60a;" 
d="M513 -63q-91 0 -174 35.5t-143 95.5t-95.5 143t-35.5 174t35.5 174t95.5 143t143 95.5t174 35.5t174 -35.5t143 -95.5t95.5 -143t35.5 -174t-35.5 -174t-95.5 -143t-143 -95.5t-174 -35.5zM512.5 777q-106.5 0 -196.5 -52.5t-142.5 -143t-52.5 -197t52.5 -196.5
t142.5 -142.5t196.5 -52.5t197 52.5t143 142.5t52.5 196.5t-52.5 197t-143 143t-197 52.5zM537 258q-9 -10 -24 -7q-15 -3 -25 7l-214 214q-8 8 -8 20t8 20t19.5 8t19.5 -8l200 -200l199 200q8 8 20 8t20 -8t8 -20t-8 -20z" />
    <glyph glyph-name="gengduo" unicode="&#xe683;" 
d="M211 391q-38 0 -64.5 -26.5t-26.5 -64.5t26.5 -64.5t64.5 -26.5t65 26.5t27 64.5t-27 64.5t-65 26.5zM503 391q-38 0 -65 -26.5t-27 -64.5t27 -64.5t65 -26.5t64.5 26.5t26.5 64.5t-26.5 64.5t-64.5 26.5zM813 391q-38 0 -65 -26.5t-27 -64.5t27 -64.5t65 -26.5
t64.5 26.5t26.5 64.5t-26.5 64.5t-64.5 26.5z" />
    <glyph glyph-name="weather-xiaodaozhongyu" unicode="&#xe636;" horiz-adv-x="1042" 
d="M851 219v0v0h-1v0h-659v0q-79 0 -135 56t-56 135q0 60 33.5 108.5t88.5 69.5q1 63 46.5 107.5t109.5 44.5q19 0 39 -6q40 74 113 118t160 44q127 0 217.5 -88t94.5 -214q61 -18 100 -68.5t39 -115.5q0 -79 -55.5 -135t-134.5 -56zM98.5 106.5q3.5 6.5 10.5 8t13 -1.5
l34 -20v39q0 8 5 13t12.5 5t12.5 -5t5 -13v-39l34 20q6 3 13 1.5t10.5 -8t2 -13.5t-8.5 -10l-34 -20l34 -20q7 -3 8.5 -10t-2 -13.5t-10.5 -8t-13 1.5l-34 20v-40q0 -7 -5 -12t-12.5 -5t-12.5 5t-5 12v40l-34 -20q-6 -3 -13 -1.5t-10.5 8t-1.5 13.5t8 10l34 20l-34 20
q-6 3 -8 10t1.5 13.5zM262 -36.5q6 10.5 16 4.5l23 -14v27q0 5 3.5 8.5t8 3.5t8 -3.5t3.5 -8.5v-27l23 14q10 6 16 -4.5t-4 -16.5l-23 -14l23 -14q10 -6 4 -16.5t-16 -4.5l-23 14v-28q0 -5 -3.5 -8.5t-8 -3.5t-8 3.5t-3.5 8.5v28l-23 -14q-10 -6 -16 4.5t4 16.5l23 14
l-23 14q-10 6 -4 16.5zM393.5 106.5q3.5 6.5 10.5 8t13 -1.5l34 -20v39q0 8 5 13t12.5 5t12.5 -5t5 -13v-39l34 20q6 3 13 1.5t10.5 -8t2 -13.5t-8.5 -10l-34 -20l34 -20q7 -3 8.5 -10t-2 -13.5t-10.5 -8t-13 1.5l-34 20v-40q0 -7 -5 -12t-12.5 -5t-12.5 5t-5 12v40l-34 -20
q-6 -3 -13 -1.5t-10.5 8t-1.5 13.5t8 10l34 20l-34 20q-6 3 -8 10t1.5 13.5zM574.5 -36.5q5.5 10.5 15.5 4.5l23 -14v27q0 5 3.5 8.5t8.5 3.5t8 -3.5t3 -8.5v-27l23 14q10 6 16 -4.5t-4 -16.5l-23 -14l23 -14q10 -6 4 -16.5t-16 -4.5l-23 14v-28q0 -5 -3 -8.5t-8 -3.5
t-8.5 3.5t-3.5 8.5v28l-23 -14q-10 -6 -15.5 4.5t4.5 16.5l23 14l-23 14q-10 6 -4.5 16.5zM705.5 106.5q3.5 6.5 10.5 8t14 -1.5l34 -20v39q0 8 5 13t12 5t12 -5t5 -13v-39l34 20q7 3 14 1.5t10.5 -8t1.5 -13.5t-8 -10l-34 -20l34 -20q6 -3 8 -10t-1.5 -13.5t-10.5 -8
t-14 1.5l-34 20v-40q0 -7 -5 -12t-12 -5t-12 5t-5 12v40l-34 -20q-7 -3 -14 -1.5t-10.5 8t-1.5 13.5t8 10l34 20l-34 20q-6 3 -8 10t1.5 13.5z" />
    <glyph glyph-name="weather-yujiaxue" unicode="&#xe638;" horiz-adv-x="1182" 
d="M965 128v0h-748h-1q-89 0 -152.5 63.5t-63.5 153.5q0 68 38.5 123t99.5 79q2 71 53.5 121t123.5 50q22 0 44 -5q46 83 129 133t182 50q94 0 174.5 -46t128.5 -124.5t51 -172.5q69 -20 113.5 -77.5t44.5 -130.5q0 -90 -63.5 -153.5t-153.5 -63.5zM316 31q7 13 21 17
t26.5 -4t16.5 -22.5t-3 -27.5l-36 -64q-7 -13 -21 -17t-26.5 3.5t-16.5 22.5t4 28l35 64v0zM486 20q4 7 12 9t15 -2l38 -22v44q0 8 6 14t14 6t14 -6t6 -14v-44l38 22q8 4 15.5 2t11.5 -9t2 -15t-9 -12l-39 -23l39 -22q7 -4 9 -12t-2 -15t-11.5 -9t-15.5 2l-38 22v-44
q0 -8 -6 -14t-14 -6t-14 6t-6 14v44l-38 -22q-7 -4 -15 -2t-12 9t-2 15t9 12l39 22l-39 23q-7 4 -9 12t2 15zM784 31q7 13 21 17t26.5 -4t16.5 -22.5t-3 -27.5l-36 -64q-7 -13 -21 -17t-26.5 3.5t-16.5 22.5t4 28l35 64v0z" />
    <glyph glyph-name="weather-leizhenyu" unicode="&#xe63a;" 
d="M836 146v0h-648v0v0q-78 0 -133 55t-55 133q0 59 33 106.5t87 68.5q1 62 46 105.5t107 43.5q19 0 38 -5q40 72 112 115.5t157 43.5q125 0 214 -86.5t93 -210.5q60 -17 98.5 -67t38.5 -114q0 -78 -55 -133t-133 -55zM119 62q7 11 19 14.5t23 -3t14 -19.5t-3 -24l-30 -55
q-7 -12 -19 -15t-22.5 3.5t-14 19t2.5 24.5zM255 -40q6 11 18 14.5t23 -3t14 -19.5t-3 -24l-30 -56q-6 -11 -18.5 -14.5t-23 3t-14 19.5t3.5 24zM444 95h102l-85 -119h119l-239 -188l93 154h-93zM611 -40q6 11 18 14.5t23 -3t14 -19.5t-3 -24l-30 -56q-7 -11 -19 -14.5
t-22.5 3t-14 19.5t2.5 24zM797 62q6 11 18 14.5t23 -3t14.5 -19.5t-3.5 -24l-30 -55q-6 -12 -18 -15t-23 3.5t-14 19t3 24.5z" />
    <glyph glyph-name="weather-xiaoyu" unicode="&#xe642;" horiz-adv-x="1229" 
d="M1004 97v0h-778h-1q-93 0 -159 66t-66 160q0 70 40 127.5t103 82.5q3 74 56.5 126t128.5 52q22 0 46 -6q48 87 134 139t189 52q98 0 181.5 -47.5t133.5 -129.5t53 -180q71 -20 117.5 -80t46.5 -136q0 -94 -66 -160t-159 -66v0zM328 -4q8 14 22.5 18t27.5 -4t17 -23.5
t-3 -28.5l-37 -67q-7 -13 -22 -17.5t-28 3.5t-17 23.5t4 29.5zM572 -4q7 14 21.5 18t28 -4t17 -23.5t-3.5 -28.5l-37 -67q-7 -13 -21.5 -17.5t-28 3.5t-17 23.5t3.5 29.5zM815 -4q8 14 22.5 18t27.5 -4t17 -23.5t-4 -28.5l-36 -67q-8 -13 -22.5 -17.5t-27.5 3.5t-17 23.5
t4 29.5z" />
    <glyph glyph-name="weather-zhenyu" unicode="&#xe63d;" horiz-adv-x="1170" 
d="M1169 191q0 -68 -47 -115.5t-114 -47.5v0h-563v0q-67 0 -114.5 47.5t-47.5 115.5q0 52 30 94.5t78 59.5q2 55 40.5 93.5t93.5 38.5q19 0 38 -6q34 64 96.5 102.5t137.5 38.5q110 0 188 -77.5t78 -187.5v-1.5v-1.5q47 -17 76.5 -59t29.5 -94zM619 729q-7 -11 -18 -15.5
t-20 1.5h-2q-9 6 -11 17.5t5 22.5l40 69q6 11 17 15.5t20 -1.5l2 -1q9 -5 11 -16.5t-5 -22.5zM435 754h-2q-10 0 -17.5 9t-7.5 22v80q0 13 7.5 22t17.5 9h2q10 0 18 -9t8 -22v-80q0 -13 -8 -22t-18 -9zM287 715q-9 -6 -20 -1.5t-17 15.5l-40 69q-7 11 -5 22.5t11 16.5l2 1
q9 6 20 1.5t18 -15.5l39 -69q7 -11 5 -22.5t-11 -17.5h-2zM181 607q-6 -9 -17.5 -11t-22.5 5l-69 40q-11 6 -15.5 17t1.5 20l1 2q5 9 16.5 11t22.5 -5l69 -39q11 -7 15.5 -18t-1.5 -20v-2zM142 463v-2q0 -10 -9 -18t-22 -8h-80q-13 0 -22 8t-9 18v2q0 10 9 17.5t22 7.5h80
q13 0 22 -7.5t9 -17.5zM72 283l69 40q11 7 22.5 5t17.5 -11v-2q6 -9 1.5 -20t-15.5 -18l-69 -40q-11 -6 -22.5 -4t-16.5 11l-1 2q-6 9 -1.5 20t15.5 17zM434 683q51 0 96 -21.5t76 -60.5q-43 -32 -74 -78h-3t-3.5 0.5t-2.5 0.5q-68 0 -119.5 -43t-63.5 -108q-41 -23 -69 -61
q-59 64 -59 150q0 92 65 156.5t157 64.5zM531 -42q5 9 15.5 12t20 -2.5t12.5 -16t-2 -20.5l-27 -46q-5 -9 -16 -12t-20.5 2.5t-12 16t2.5 20.5zM708 -42q5 9 16 12t20.5 -2.5t12 -16t-2.5 -20.5l-27 -46q-5 -9 -16 -12t-20.5 2.5t-12 16t2.5 20.5zM885 -42q5 9 16 12
t20.5 -2.5t12 -16t-2.5 -20.5l-27 -46q-5 -9 -15.5 -12t-20 2.5t-12.5 16t2 20.5z" />
    <glyph glyph-name="weather-duoyun" unicode="&#xe63f;" horiz-adv-x="1536" 
d="M1458 114q-15 69 -57.5 125.5t-103.5 89.5q-27 171 -156.5 287.5t-303.5 124.5q94 71 210 71q93 0 172.5 -45t126.5 -122.5t50 -170.5q62 -21 101 -75t39 -122q0 -49 -20.5 -91.5t-57.5 -71.5zM1232 283q73 -29 118.5 -94t45.5 -145q0 -106 -74 -180.5t-179 -75.5v0h-889
v0q-105 1 -179.5 72.5t-74.5 171.5q0 77 45.5 139t118.5 89q-1 11 -1 17q0 87 61.5 148t147.5 61q44 0 84 -17q56 93 151 148t207 55q109 0 202.5 -51.5t150.5 -141t65 -196.5z" />
    <glyph glyph-name="weather-yejianduoyun" unicode="&#xe641;" horiz-adv-x="1303" 
d="M1100 -128v0h-708v0q-84 0 -143 59t-59 143q0 65 37.5 117t97.5 73q2 68 50.5 115.5t117.5 47.5q21 0 42 -5q44 79 122.5 126t172.5 47q91 0 168 -44t122.5 -120.5t46.5 -166.5q60 -21 97.5 -73t37.5 -117q0 -84 -59 -143t-143 -59v0zM500 483q-11 1 -14 1
q-81 0 -142.5 -51.5t-75.5 -129.5q-44 -24 -75 -62q-52 26 -92 66q-63 63 -88 149q86 -26 179 -3t160.5 90.5t90.5 160.5t-3 179q86 -25 149 -88q71 -71 93 -170q-113 -43 -182 -142zM288 568l-16 -24l-3 28l-29 7l26 12l-2 29l20 -21l27 11l-14 -25l19 -22zM330 647l-84 41
l-69 -65l13 93l-83 45l93 17l17 93l45 -83l93 12l-65 -68zM132 576l41 16l-21 -37l28 -33l-43 8l-23 -37l-6 43l-42 10l39 18l-3 43z" />
    <glyph glyph-name="weather-xiaoxue" unicode="&#xe64a;" horiz-adv-x="1182" 
d="M965 128v0h-748h-1q-89 0 -152.5 63.5t-63.5 153.5q0 68 38.5 123t99.5 79q2 71 53.5 121t123.5 50q22 0 44 -5q46 83 129 133t182 50q94 0 174.5 -46t128.5 -124.5t51 -172.5q69 -20 113.5 -77.5t44.5 -130.5q0 -90 -63.5 -153.5t-153.5 -63.5zM210 20q4 7 12 9t15 -2
l39 -22v44q0 8 5.5 14t14 6t14 -6t5.5 -14v-44l39 22q7 4 15 2t12 -9t2 -15t-10 -12l-38 -23l38 -22q8 -4 10 -12t-2 -15t-12 -9t-15 2l-39 22v-44q0 -8 -5.5 -14t-14 -6t-14 6t-5.5 14v44l-39 -22q-7 -4 -15 -2t-12 9t-2 15t9 12l39 22l-39 23q-7 4 -9 12t2 15zM486 20
q4 7 12 9t15 -2l38 -22v44q0 8 6 14t14 6t14 -6t6 -14v-44l38 22q8 4 15.5 2t11.5 -9t2 -15t-9 -12l-39 -23l39 -22q7 -4 9 -12t-2 -15t-11.5 -9t-15.5 2l-38 22v-44q0 -8 -6 -14t-14 -6t-14 6t-6 14v44l-38 -22q-7 -4 -15 -2t-12 9t-2 15t9 12l39 22l-39 23q-7 4 -9 12
t2 15zM761.5 20q4.5 7 12 9t14.5 -2l39 -22v44q0 8 6 14t14 6t13.5 -6t5.5 -14v-44l39 22q7 4 15 2t12 -9t2 -15t-9 -12l-39 -23l39 -22q7 -4 9 -12t-2 -15t-12 -9t-15 2l-39 22v-44q0 -8 -5.5 -14t-13.5 -6t-14 6t-6 14v44l-39 -22q-7 -4 -14.5 -2t-12 9t-2 15t9.5 12
l38 22l-38 23q-7 4 -9.5 12t2 15z" />
    <glyph glyph-name="weather-leiyu" unicode="&#xe64b;" 
d="M836 230v0h-648v0q-78 0 -133 55t-55 133q0 59 33 106.5t87 68.5q1 62 46 105.5t107 43.5q19 0 38 -5q40 72 112 115.5t157 43.5q125 0 214 -86.5t93 -210.5q60 -17 98.5 -67t38.5 -114q0 -78 -55 -133t-133 -55zM119 146q7 11 19 14.5t23 -3t14 -19.5t-3 -24l-30 -55
q-7 -12 -19 -15t-22.5 3.5t-14 19t2.5 24.5zM255 44q6 11 18 14.5t23 -3t14 -19.5t-3 -24l-30 -56q-6 -11 -18.5 -14.5t-23 3t-14 19.5t3.5 24zM444 179h102l-85 -119h119l-239 -188l93 154h-93zM611 44q6 11 18 14.5t23 -3t14 -19.5t-3 -24l-30 -56q-7 -11 -19 -14.5
t-22.5 3t-14 19.5t2.5 24zM797 146q6 11 18 14.5t23 -3t14.5 -19.5t-3.5 -24l-30 -55q-6 -12 -18 -15t-23 3.5t-14 19t3 24.5z" />
    <glyph glyph-name="weather-yu" unicode="&#xe64f;" horiz-adv-x="1229" 
d="M1004 13v0h-778v0h-1q-93 0 -159 66t-66 160q0 70 40 127.5t103 82.5q3 74 56.5 126t128.5 52q22 0 46 -6q48 87 134 139t189 52q98 0 181.5 -47.5t133.5 -129.5t53 -180q71 -20 117.5 -80t46.5 -136q0 -94 -66 -160t-159 -66zM328 -88q8 14 22.5 18t27.5 -4t17 -23.5
t-3 -28.5l-37 -67q-7 -13 -22 -17.5t-28 3.5t-17 23.5t4 29.5zM572 -88q7 14 21.5 18t28 -4t17 -23.5t-3.5 -28.5l-37 -67q-7 -13 -21.5 -17.5t-28 3.5t-17 23.5t3.5 29.5zM815 -88q8 14 22.5 18t27.5 -4t17 -23.5t-4 -28.5l-36 -67q-8 -13 -22.5 -17.5t-27.5 3.5t-17 23.5
t4 29.5z" />
    <glyph glyph-name="tuichu" unicode="&#xe600;" 
d="M736 692v-74q88 -56 140 -148.5t52 -201.5q0 -113 -55.5 -208.5t-151 -151t-208.5 -55.5t-209 55.5t-151.5 151t-55.5 208.5q0 109 52 201.5t140 148.5v74q-116 -61 -186 -174.5t-70 -249.5q0 -97 38 -186t102.5 -153t153 -102t186 -38t186.5 38t153 102t102 153t38 186
q0 136 -70 249.5t-186 174.5zM512.5 300q13.5 0 23 9.5t9.5 22.5v448q0 13 -9.5 22t-23 9t-22.5 -9t-9 -22v-448q0 -13 9 -22.5t22.5 -9.5z" />
    <glyph glyph-name="pm25" unicode="&#xe623;" 
d="M37 153l386 659l66 -98l-388 -661zM185 57l390 663l68 -99l-392 -664zM341 -34l394 666l69 -100l-396 -668zM587 -212l-68 103l399 670l69 -101z" />
    <glyph glyph-name="qixiangzhan" unicode="&#xe62b;" 
d="M960 598q0 62 -44 106t-106 44h-596q-62 0 -106 -44t-44 -106v-596q0 -62 44 -106t106 -44h596q62 0 106 44t44 106v596v0zM885 28q0 -42 -30 -72t-72 -30h-543q-42 0 -72 30t-30 72v543q0 42 30 72t72 30h543q42 0 72 -30t30 -72v-543v0zM512 515q11 0 19 8t8 19v36
q0 11 -8 18.5t-19 7.5t-19 -7.5t-8 -18.5v-36q0 -11 8 -19t19 -8zM270 327h-36q-11 0 -18.5 -8t-7.5 -19t7.5 -19t18.5 -8h36q11 0 19 8t8 19t-8 19t-19 8zM703 454l25 25q8 8 8 19t-8 19t-19 8t-19 -8l-25 -25q-8 -8 -8 -19.5t7.5 -19t19 -7.5t19.5 8zM326 146l-25 -25
q-8 -8 -8 -19t7.5 -19t19 -8t19.5 8l25 25q8 8 8 19.5t-8 19t-19 7.5t-19 -8zM790 327h-36q-11 0 -19 -8t-8 -19t8 -19t19 -8h36q11 0 18.5 8t7.5 19t-7.5 19t-18.5 8zM706 150q-8 7 -19 7t-19 -7.5t-8 -18.5t8 -19l25 -26q8 -8 19 -8t19 8t8 19t-8 19zM512 470
q-70 0 -120 -50t-50 -120t50 -120t120 -50t120 50t50 120t-50 120t-120 50zM512 184q-48 0 -82 34t-34 82t34 82t82 34t82 -34t34 -82t-34 -82t-82 -34zM512 85q-11 0 -19 -8t-8 -19v-36q0 -11 8 -18.5t19 -7.5t19 7.5t8 18.5v36q0 11 -8 19t-19 8zM323 450q8 -7 19 -7
t19 7.5t8 18.5t-8 19l-26 26q-7 8 -18.5 8t-19 -8t-7.5 -19t7 -19z" />
    <glyph glyph-name="shidu" unicode="&#xe62f;" 
d="M335 162q-9 0 -13 9q-1 3 -3 11q-1 6 -2 10q-1 5 2 10t8.5 6t10 -2t5.5 -8q2 -5 3 -10t1 -7q6 -12 -7 -18q-2 -1 -5 -1zM491 35h-2q-45 6 -83 30.5t-63 63.5q-7 11 4.5 18.5t18.5 -4.5q45 -70 127 -81q6 -1 9 -5.5t3 -9.5q-2 -12 -14 -12zM512 -62q-121 0 -207 86
t-86 207q0 68 70.5 245.5t120.5 275.5q40 80 101 80t101 -80q52 -101 122.5 -276.5t70.5 -244.5q0 -121 -86 -207t-207 -86zM511 777q-28 0 -53 -50q-49 -98 -116.5 -269t-67.5 -227q0 -98 70 -168t168.5 -70t168.5 70t70 168q0 56 -67 224t-120 272q-25 50 -53 50z" />
    <glyph glyph-name="zhishu" unicode="&#xe618;" 
d="M916 632l-210 -453q29 -29 29 -70q0 -42 -29.5 -71.5t-71 -29.5t-71 29.5t-29.5 71.5q0 27 14 51l-203 237q-21 -10 -44 -10q-10 0 -20 2l-102 -218q21 -27 21 -62q0 -42 -29 -71.5t-71 -29.5t-71 29.5t-29 71t29 71t71 29.5q23 0 44 -10l97 207q-41 30 -41 81
q0 42 29.5 71t71 29t71 -29t29.5 -71q0 -35 -22 -63l200 -232q25 17 55 17q18 0 34 -6l206 442q-23 13 -36.5 36t-13.5 51q0 42 29 71t71 29t71 -29t29 -71t-29 -71t-71 -29h-8z" />
    <glyph glyph-name="iconfontwoyaoyuyue" unicode="&#xe63b;" 
d="M512 -92q-98 0 -187 38.5t-153.5 103t-103 153.5t-38.5 187t38.5 187t103 153.5t153.5 103t187 38.5t187 -38.5t153.5 -103t103 -153.5t38.5 -187t-38.5 -187t-103 -153.5t-153.5 -103t-187 -38.5zM512 812q-114 0 -211 -57t-154 -154t-57 -211t57 -211t154 -154t211 -57
t211 57t154 154t57 211t-57 211t-154 154t-211 57zM738 318h-277q-14 0 -22 8t-8 22v298q0 14 8 22t21.5 8t22 -8t8.5 -22v-268h247q13 0 21.5 -8.5t8.5 -21.5q0 -12 -8.5 -21t-21.5 -9z" />
    <glyph glyph-name="ec" unicode="&#xe605;" 
d="M2 646h433v-112h-271v-83h252v-107h-252v-103h279v-119h-441v524zM879 337l142 -43q-15 -60 -45 -100q-31 -39 -76 -60q-45 -20 -116 -20q-86 0 -140 24q-54 25 -93 87.5t-39 160.5q0 130 69 199q69 70 195 70q99 0 156 -40q56 -40 84 -123l-143 -31q-7 23 -16 35
q-13 18 -32.5 28t-44.5 10q-55 0 -84 -44q-22 -33 -22 -103q0 -87 26.5 -119.5t73.5 -32.5t71 26q23 26 34 76z" />
    <glyph glyph-name="daohanglanmu" unicode="&#xe622;" 
d="M901 92h-778q-18 0 -30.5 -12.5t-12.5 -30.5t12.5 -30.5t30.5 -12.5h778q18 0 30.5 12.5t12.5 30.5t-12.5 30.5t-30.5 12.5zM123 676h778q18 0 30.5 12.5t12.5 30.5t-12.5 30.5t-30.5 12.5h-778q-18 0 -30.5 -12.5t-12.5 -30.5t12.5 -30.5t30.5 -12.5zM901 427h-778
q-18 0 -30.5 -12.5t-12.5 -30.5t12.5 -30.5t30.5 -12.5h778q18 0 30.5 12.5t12.5 30.5t-12.5 30.5t-30.5 12.5z" />
    <glyph glyph-name="password" unicode="&#xe61a;" 
d="M698 -35q0 -19 -13.5 -33t-32.5 -14h-559q-19 0 -32.5 14t-13.5 33v419q0 19 13.5 33t32.5 14h559q19 0 32.5 -14t13.5 -33v-419v0zM140 617q0 96 68 164.5t164.5 68.5t164.5 -68.5t68 -164.5v-140h-465v140v0zM652 477v140q0 115 -82 197t-197.5 82t-197.5 -82t-82 -197
v-140q-38 0 -65.5 -27t-27.5 -66v-419q0 -38 27.5 -65.5t65.5 -27.5h559q38 0 65.5 27.5t27.5 65.5v419q0 39 -27.5 66t-65.5 27v0zM396 158v-30q0 -10 -7 -16.5t-16.5 -6.5t-16.5 6.5t-7 16.5v30q-23 13 -23 40q0 19 13.5 32.5t33 13.5t33 -13.5t13.5 -32.5q0 -27 -23 -40
v0zM372 291q-38 0 -65.5 -27.5t-27.5 -65.5q0 -35 24 -62v-8q0 -29 20.5 -49.5t49 -20.5t49 20.5t20.5 49.5q0 1 -1 8q24 27 24 62q0 38 -27 65.5t-66 27.5v0z" />
    <glyph glyph-name="zhoubao" unicode="&#xe6b3;" 
d="M601 560h-241q-10 0 -17 -7t-7 -17t7 -17t17 -7h241q10 0 17 7t7 17t-7 17t-17 7zM625 392q0 10 -7 17t-17 7h-241q-10 0 -17 -7t-7 -17t7 -17t17 -7h241q10 0 17 7t7 17zM360 272q-10 0 -17 -7t-7 -17t7 -17t17 -7h148q10 0 17 7t7 17t-7 17t-17 7h-148zM244 32
q-21 0 -36 15t-15 37v568q0 22 15 37t36 15h473q21 0 36 -15t15 -37v-251q25 -7 48 -19v270q0 42 -29 71t-70 29h-473q-41 0 -70 -29t-29 -71v-568q0 -42 29 -71t70 -29h250q-18 22 -31 48h-219zM695 249q-10 0 -16.5 -6.5t-6.5 -16.5v-97v-1q-1 -10 6 -16l69 -69
q7 -7 16.5 -7t16.5 7t7 16.5t-6 16.5l-62 62v88q0 10 -7 16.5t-17 6.5zM722 365l-1 52l-84 -77l85 -69v46q53 -9 91 -48q49 -49 49 -118.5t-49 -119t-118 -49.5t-118 49q-48 48 -49 116v4q0 10 -7 17t-17 7t-17 -7t-7 -17v-1v0q0 -89 63 -152.5t152 -63.5t152 63.5t63 152.5
q0 83 -54 144t-134 71z" />
    <glyph glyph-name="iconboat" unicode="&#xe60d;" 
d="M179 9v0q80 0 143 73q9 10 22 10t22 -10q66 -73 141 -73q76 0 142 74q9 10 22 10t22 -10q66 -74 142 -74v0l99 329q3 9 0 34q-1 9 -5 15q-5 7 -19 14l-57 26q-18 8 -18 28v212q0 44 -24.5 73t-59.5 29h-98q-11 0 -19 7t-10 17l-18 78q-2 11 -10 17.5t-19 6.5h-136
q-10 0 -18 -6.5t-11 -16.5l-21 -80q-2 -10 -10 -16.5t-18 -6.5h-99q-35 0 -60 -30.5t-25 -71.5v-211q0 -21 -19 -29l-54 -20q-2 -1 -4 -3q-12 -6 -19 -18q-2 -4 -3 -8q-5 -17 1 -35l98 -334v0zM264 667h457q13 0 21.5 -9t8.5 -21v-123q0 -17 -13 -26t-27 -3l-193 77
q-11 4 -21 0l-193 -77q-15 -6 -27.5 3t-12.5 26v153zM676 9q-76 -62 -157.5 -63.5t-158.5 54.5q-17 13 -34 0q-35 -25 -72 -49.5t-95.5 -51t-96.5 -26.5h47q42 0 105 16.5t106 38.5q14 7 28 0q78 -43 164 -43t164 43q14 7 28 0q43 -22 105.5 -38.5t105.5 -16.5h47
q-29 -1 -69 12.5t-76.5 33.5t-69 40.5t-52 34.5t-19.5 15v0v0v0v0z" />
    <glyph glyph-name="alarm" unicode="&#xe7b8;" 
d="M513 896q12 0 21 -3t14 -10t8 -14t4 -20t1 -21.5t-0.5 -24t-0.5 -24.5q0 -5 0.5 -18t0.5 -20.5t-1.5 -16.5t-5.5 -14q-10 -17 -33 -21q-10 -1 -22 5q-10 5 -15.5 13t-7.5 21t-2 22.5t0.5 29t0.5 27.5q0 5 -1 20t0 25t3 17q2 4 3.5 6.5t4 5l4 4t5.5 3.5t5.5 2.5t6.5 2.5
t7 3zM209 794q18 0 31 -10q32 -40 59 -73q3 -4 10.5 -11.5t12.5 -14.5t8 -14q6 -15 0 -29.5t-18 -21.5q-11 -6 -24.5 -5t-23.5 7q-6 5 -12 12t-14 18t-10 14q-4 5 -15.5 19t-17.5 21q-1 2 -6.5 8.5t-7.5 9.5t-6 9.5t-4.5 10.5t-1 10t2 12t7.5 13q3 3 6.5 5.5t6.5 3.5t8 2.5
t9 3.5zM817 779q25 1 40.5 -15.5t6.5 -40.5q-3 -7 -8.5 -13.5t-13 -14t-10.5 -11.5q-20 -22 -41 -46q-19 -23 -26 -27q-8 -6 -21.5 -7t-23.5 4q-13 8 -19 24.5t3 34.5q31 34 41 45q6 7 17 19.5t15 16.5q17 21 24 25q14 5 16 6zM773 29h-524v240v28.5v31.5t0.5 27.5t2.5 29
t5 23.5q30 101 119 154q37 22 87 33q5 0 16.5 1t16.5 2h31q55 -8 62 -10q67 -21 112 -67t64 -113q4 -11 5.5 -23.5t2.5 -29t1 -27.5t-0.5 -31t-0.5 -28v-241v0zM37 520q11 0 39 -6q27 -5 70 -14q5 -1 13.5 -2.5t13.5 -2.5t11 -3.5t10 -6.5q10 -9 13 -23t-4 -29
q-10 -16 -29 -20q-9 -2 -38 5q-12 2 -35.5 7t-35.5 7q-4 1 -16.5 3t-20 4.5t-13.5 6.5q-13 11 -14 31.5t13 31.5q1 2 23 11v0zM977 499q27 0 40 -22.5t-3 -44.5q-4 -6 -11 -9.5t-12 -5t-17.5 -3.5t-16.5 -3q-41 -6 -72 -10q-28 -6 -37 -4q-22 5 -31 24q-6 18 0.5 33.5
t20.5 21.5q4 2 10 3t13 2t11 2q15 2 40.5 6t31.5 5q11 2 33 5zM198 -7h513q11 0 36.5 1t37 0.5t28.5 -3t27.5 -10t18.5 -19.5q10 -18 7 -36q-2 -14 -7.5 -23.5t-15.5 -15.5t-18.5 -9t-24.5 -4t-26.5 -1t-30.5 0.5t-31 0.5h-368h-107q-46 0 -54 3q-24 9 -35 34t3 53
q11 17 29 24q2 1 8.5 2.5t9.5 2.5v0z" />
    <glyph glyph-name="weather-yangsha" unicode="&#xe63c;" 
d="M960 562q0 83 -97 149t-252 93q93 -36 146 -88.5t53 -112.5q0 -68 -80 -128q-12 -9 -21 -15q-81 -52 -206 -83.5t-261 -31.5q-90 0 -178 16q144 -56 328 -56q218 0 388 73q7 -19 7 -35q0 -44 -44 -85q-12 -11 -26 -21q-62 -43 -163 -69.5t-212 -26.5q-70 0 -139 12
q113 -43 256 -43q163 0 294 53v-0.5v-0.5q0 -71 -97 -121t-241 -50q-60 0 -118 10q95 -37 217 -37q144 0 241 50t97 121q0 33 -27 65q80 51 80 111q0 55 -58 102q113 68 113 149zM213 673q13 0 23 -9.5t10 -22.5t-10 -22.5t-23 -9.5v64zM135 515q13 0 22.5 -9t9.5 -22.5
t-9.5 -23t-22.5 -9.5v64zM383 592q14 0 23.5 -9.5t9.5 -23t-9.5 -22.5t-23.5 -9v64zM573 510q13 0 23 -9t10 -22.5t-10 -23t-23 -9.5v64zM305 434q14 0 23.5 -9.5t9.5 -22.5t-9.5 -22.5t-23.5 -9.5v64zM347 225q13 0 23 -9t10 -22.5t-10 -23t-23 -9.5v64zM526 225
q13 0 23 -9t10 -22.5t-10 -23t-23 -9.5v64zM442 63q14 0 23.5 -9.5t9.5 -22.5t-9.5 -22.5t-23.5 -9.5v64zM463 740q14 0 23.5 -9.5t9.5 -22.5t-9.5 -22.5t-23.5 -9.5v64z" />
    <glyph glyph-name="next" unicode="&#xe965;" 
d="M34 657v-546l478 273zM68 598l375 -214l-375 -214v428zM512 657v-546l478 273zM546 598l375 -214l-375 -214v428z" />
    <glyph glyph-name="date" unicode="&#xe60e;" 
d="M864 -96h-704q-26 0 -45 19t-19 45v704q0 27 18.5 45.5t45.5 18.5h64v-32q0 -40 28 -68t68 -28t68 28t28 68v32h192v-32q0 -40 28 -68t68 -28t68 28t28 68v32h64q27 0 45.5 -18.5t18.5 -45.5v-704q0 -26 -19 -45t-45 -19zM864 512h-704v-544h704v544zM320 352h-96v96h96
v-96zM320 192h-96v96h96v-96zM320 32h-96v96h96v-96zM480 352h-96v96h96v-96zM480 192h-96v96h96v-96zM480 32h-96v96h96v-96zM640 352h-96v96h96v-96zM640 192h-96v96h96v-96zM640 32h-96v96h96v-96zM800 352h-96v96h96v-96zM800 192h-96v96h96v-96zM800 32h-96v96h96v-96z
M703 640q-26 0 -44.5 18.5t-18.5 44.5v66q0 26 18.5 44.5t44.5 18.5t44.5 -18.5t18.5 -44.5v-66q0 -26 -18.5 -44.5t-44.5 -18.5zM319 640q-26 0 -44.5 18.5t-18.5 44.5v66q0 26 18.5 44.5t44.5 18.5t44.5 -18.5t18.5 -44.5v-66q0 -26 -18.5 -44.5t-44.5 -18.5z" />
    <glyph glyph-name="05" unicode="&#xe606;" 
d="M690 637l-28 16l-31 -90h30zM617 383l-112 449l-101 -453q-11 -24 -11 -52v0v0q0 -33 15 -61q25 -44 73 -57t90 12q29 17 44.5 45t15.5 61v0v1q0 29 -14 55zM512 235q-37 0 -63.5 27t-26.5 65t26.5 64.5t63.5 26.5t63.5 -26.5t26.5 -64.5t-26.5 -65t-63.5 -27zM594 764
l-12 -59q125 -24 206.5 -123t81.5 -228q0 -97 -48 -179.5t-130.5 -130.5t-179.5 -48t-179.5 48t-130.5 130.5t-48 179.5q0 129 81.5 228t206.5 123l-12 59q-145 -29 -240.5 -144t-95.5 -266q0 -114 56 -210t152 -152t210 -56t210 56t152 152t56 210q0 151 -95.5 266
t-240.5 144zM721 503v-30l84 42l-17 27zM184 354h89v30h-89v-30zM840 354v30h-89v-30h89zM363 563h30l-31 90l-28 -16zM321 495l-85 47l-17 -27l86 -48zM512 388q-25 0 -42.5 -18t-17.5 -43.5t17.5 -43.5t42.5 -18t42.5 18t17.5 43.5t-17.5 43.5t-42.5 18z" />
    <glyph glyph-name="weather-yintian" unicode="&#xe646;" 
d="M849 602q-32 54 -86 85t-117 31q-57 0 -106.5 -25t-82.5 -69q-28 5 -50 5q-104 0 -183.5 -64.5t-100.5 -165.5q-54 -18 -88.5 -64.5t-34.5 -105.5q0 -74 52.5 -126.5t127.5 -52.5q54 0 99 29q60 -29 128 -29q70 0 132 32q53 -32 114 -32q86 0 148.5 57.5t69.5 141.5
q65 9 109 59t44 117q0 73 -51 124.5t-124 52.5zM810 251q-6 -59 -51 -100t-106 -41q-54 0 -96 33q-10 8 -22.5 6t-20.5 -11v-1v0q-50 -27 -107 -27q-61 0 -113 30q-13 7 -27 1q-8 -1 -14 -6q-32 -25 -73 -25q-50 0 -84.5 35t-34.5 84t34.5 84t84.5 35q52 0 87 -38
q9 -9 21.5 -9.5t21.5 8t9.5 21t-7.5 21.5q-50 54 -124 57q22 72 82.5 116.5t136.5 44.5q6 0 19 -1q26 -3 50 -10q70 -23 114 -81q-6 -2 -16 -6q-17 -6 -35 -17q-16 -10 -27 -20q-10 -8 -11 -20.5t7 -22t20.5 -10.5t22.5 7q44 38 102 38q56 0 99 -35t55 -88q4 -18 4 -35
q0 -8 -1 -17z" />
    <glyph glyph-name="weather-shachenbao" unicode="&#xe8bb;" 
d="M898 544q16 -25 16 -50q0 -54 -64 -99q15 -23 15 -48q0 -56 -77 -99q4 -12 4 -22q0 -15 -7 -31q56 -34 56 -79q0 -27 -22 -52q22 -22 22 -46q0 -38 -50 -66q-3 -23 -30.5 -39t-65.5 -16q-53 0 -82 27q-59 8 -97.5 33.5t-39.5 59.5q-44 16 -70.5 41.5t-27.5 54.5
q-56 18 -89 48t-33 65q0 10 4 21q-77 44 -77 100q0 18 9 36q-82 49 -82 111q0 25 16 50q-89 54 -89 120q0 57 63.5 104.5t173 75.5t238.5 28t238.5 -28t173 -75.5t63.5 -104.5q0 -66 -89 -120zM865 494q0 14 -8 28q-60 -28 -140 -44q64 -21 102 -51q46 31 46 67zM727 60
q-33 7 -69 7q-68 0 -108 -20q29 -4 60 -4q65 0 117 17zM706 178q-45 11 -96 11q-55 0 -99.5 -12t-66.5 -31q39 -6 80 -6q117 0 182 38zM524.5 238q110.5 0 193.5 27q-28 21 -80 33.5t-114 12.5t-114 -12.5t-80 -33.5q84 -27 194.5 -27zM774 404q-39 24 -105.5 38.5
t-144.5 14.5q-83 0 -152.5 -16t-106.5 -43q103 -38 247 -38q157 0 262 44zM824 557q-45 32 -128.5 51.5t-183.5 19.5t-183.5 -19.5t-128.5 -51.5q127 -51 312 -51t312 51zM817 347q0 12 -7 24q-51 -26 -119 -41q47 -19 73 -45q53 28 53 62zM728 221q2 -1 14 -6q2 6 2 11
h-0.5t-0.5 1q-14 -6 -15 -6zM757 159q-30 -26 -82 -44q61 -3 105 -25q12 13 12 26q0 23 -35 43zM783 36q-19 -12 -50 -22q24 -7 40 -20q19 11 19 24q0 9 -9 18zM602 -26q5 11 16 20h-4h-5q-38 0 -76 7q20 -18 69 -27zM493 60q17 18 47 32h-7.5h-8.5q-47 0 -93 8
q14 -24 62 -40zM392 158q14 20 41 37q-71 9 -128 31v0v0q0 -21 23.5 -38.5t63.5 -29.5zM284 285q24 24 65 42q-64 13 -115 35q-2 -8 -2 -15q0 -34 52 -62zM159 494q0 -42 60 -76q36 33 103 56q-88 17 -155 48q-8 -14 -8 -28zM512 823q-116 0 -214 -21.5t-155.5 -58
t-57.5 -79.5q0 -47 70 -86q51 44 146.5 71t210.5 27t210.5 -27t146.5 -71q70 39 70 86q0 43 -57.5 79.5t-155.5 58t-214 21.5z" />
    <glyph glyph-name="liu" unicode="&#xe70f;" 
d="M132 -73l-104 22l108 337l104 -26zM32 464l39 95l160 -112l-38 -100zM54 723l35 100l160 -113l-39 -95zM482 347v-273l-86 -147l-104 18l82 147v255h108zM694 840l26 -65h269v-90h-416l-95 -182h359l-43 91l91 34l108 -220h-675l147 277h-134v90h268l-21 44zM707 347
v-420h-108v420h108zM984 -73h-155v420h108v-324h47v-96z" />
    <glyph glyph-name="qixiangzhan1" unicode="&#xe8e7;" 
d="M912 664q-1 0 -3.5 15t-13 40t-30.5 44q-18 20 -43 31t-40 14l-15 3l12 3q55 0 95 -42q43 -42 40 -97zM870 664l-2 10.5t-9.5 29t-21.5 31.5q-13 14 -31 22t-29 10t-11 3l14 1q37 -2 63 -29q32 -32 29 -73zM786 564q24 26 23 61.5t-27 60t-62 23.5t-60 -27
q-17 -19 -21.5 -43.5t3.5 -46.5l-226 -242q-10 -12 -9.5 -27.5t12 -26t27 -10t25.5 11.5l226 243q23 -8 47.5 -1.5t41.5 24.5zM242 539q-60 -61 -41 -164.5t106 -188.5t191 -101.5t164 44.5q53 55 44.5 142t-71.5 169l-111 -120l96 9q10 -1 18 -9t10 -17.5t-3.5 -15
t-15.5 -3.5l-150 -10l-0.5 -0.5l-0.5 -0.5l132 -66q8 -8 9.5 -17.5t-4 -15t-15 -4t-17.5 9.5l-136 62l56 -85q3 -8 -2 -13.5t-15 -4.5t-20 6.5t-14 13.5l-59 79l-42 -48q-3 -4 -11.5 -2t-16.5 9t-11.5 15t-0.5 12l40 47l-82 47q-17 11 -19 37q-1 10 4 15t12 1l80 -51
l-55 139q-15 22 -3 35q6 6 15 4t16 -11l56 -135l20 156q0 11 6 16.5t15.5 4t16.5 -9.5t7 -19l-12 -99l116 125q-81 57 -165.5 61t-136.5 -48zM478 273l0.5 0.5l0.5 0.5h-3zM662 129q-60 -61 -164 -44.5t-191 101.5t-106 188.5t41 164.5q52 52 136.5 48t165.5 -61l35 37
q-103 77 -212 84.5t-175 -59.5q-49 -50 -55.5 -126t29.5 -159.5t106.5 -152.5t154.5 -103t160.5 -25.5t125.5 58.5q67 70 54 182.5t-97 214.5l-35 -37q63 -82 71.5 -169t-44.5 -142zM246 110q-63 62 -99 137q-7 -5 -12 -10q-39 -38 -34.5 -98t50 -107t105 -54t98.5 31
q7 7 12 14q-65 34 -120 87zM162 47q-27 25 -39 53.5t-10 51.5t10.5 40.5t21.5 24.5q-43 -63 17 -170v0z" />
    <glyph glyph-name="icon-report1" unicode="&#xe65e;" horiz-adv-x="1026" 
d="M125 -61h533q20 0 40 -4q45 -10 68 -35q6 -7 15 -7q8 0 14 5q6 6 6.5 14.5t-5.5 14.5q-22 24 -57.5 37t-52.5 14.5t-29 0.5h-532q-35 0 -60 25t-25 60v643q0 35 25 59.5t60 24.5h127v-29q0 -8 6 -14t14 -6t14 6t6 14v29h441v-29q0 -8 6 -14t14.5 -6t14.5 6t6 14v29h127
q35 0 59.5 -24.5t24.5 -59.5v-643q0 -35 -24.5 -60t-59.5 -25h-42q-8 0 -14 -6t-6 -14t6 -14t14 -6h42q51 0 87.5 36.5t36.5 88.5v643q0 52 -36.5 88.5t-87.5 36.5h-127v23q0 8 -6 14t-14.5 6t-14.5 -6t-6 -14v-23h-441v23q0 8 -6 14t-14 6t-14 -6t-6 -14v-23h-127
q-52 0 -88.5 -36.5t-36.5 -88.5v-643q0 -52 36.5 -88.5t88.5 -36.5v0v0zM258 558q0 12 10.5 20.5t25.5 8.5v0h437q15 0 25.5 -8.5t10.5 -20.5t-10.5 -20.5t-25.5 -8.5h-437q-15 0 -25.5 8.5t-10.5 20.5zM258 384q0 12 10.5 20.5t25.5 8.5v0h437q15 0 25.5 -8.5t10.5 -20.5
t-10.5 -20.5t-25.5 -8.5h-437q-15 0 -25.5 8.5t-10.5 20.5zM258 210q0 12 10.5 20.5t25.5 8.5v0h437q15 0 25.5 -8.5t10.5 -20.5t-10.5 -20.5t-25.5 -8.5h-437q-15 0 -25.5 8.5t-10.5 20.5zM294 239z" />
    <glyph glyph-name="qixiang" unicode="&#xe6b5;" 
d="M826 478q-22 112 -110 185t-204 73q-91 0 -167 -47t-116 -125q-97 -11 -163 -83.5t-66 -171.5q0 -106 75 -181t181 -75h555q88 0 150.5 62.5t62.5 151.5q0 84 -57.5 145t-140.5 66v0zM811 139h-555q-71 0 -121 50t-50 120.5t50 120.5t121 50t121 -50t50 -121h85
q0 88 -53 156t-135 91q33 44 82.5 69.5t105.5 25.5q97 0 166 -69t69 -166v-21h64q52 0 90 -38t38 -90.5t-38 -90t-90 -37.5v0z" />
    <glyph glyph-name="huanqi" unicode="&#xe6d8;" 
d="M144 305q-10 0 -18.5 6.5t-10.5 17.5q-1 6 -2.5 16.5t-1.5 41.5t4.5 61t18.5 71t36.5 76.5t63 72.5t93.5 63q11 6 23 2t17.5 -15t1.5 -22.5t-15 -17.5q-45 -22 -79.5 -52.5t-53.5 -60.5t-31 -63.5t-16 -58.5t-4 -51t1.5 -36t2.5 -16q2 -12 -5 -22t-19 -13h-6zM206 17v0
q-22 0 -46 8q-59 18 -83 77.5t-3 135.5q1 3 3 7v0q1 7 4 17.5t16.5 37.5t33.5 50l5 6q7 8 11 12t11 10l3 2q12 10 20.5 16t14.5 10l16 9h1q31 16 65 25q38 10 73 10q57 0 94 -25.5t47 -70.5q5 -27 -2.5 -41t-31.5 -35q-32 -28 -59 -55q-25 -24 -59 -89q-13 -24 -20.5 -37
t-21 -31t-29.5 -29t-34 -16q-14 -4 -29 -4zM142 256l-10 -34q-7 -30 -7 -57.5t13.5 -51t38.5 -31.5q16 -5 29 -5v0q7 0 13 2q13 3 26 17t20.5 27t21.5 39q39 73 69 103q29 29 63 58q12 11 15 14q0 1 -0.5 2.5l-0.5 1.5q-10 50 -82 50q-27 0 -58 -8q-33 -9 -63 -26l-7 -5
q-3 -2 -8 -5q-6 -4 -14 -11l-5 -4q-6 -5 -7 -6q-2 -2 -8 -9l-2 -4l-1 1q-23 -27 -36 -58zM900 345q-12 0 -21 8.5t-9 20.5q-1 51 -13.5 95.5t-31.5 75t-44.5 56.5t-47 40.5t-44 26t-31.5 14.5t-13 4q-12 4 -18.5 14.5t-3 22.5t14 18t22.5 3q6 -2 16 -5.5t37.5 -17t53 -30.5
t56 -48t53 -67t38 -88.5t16.5 -112.5q0 -12 -9 -21t-21 -9v0zM575 333v0q-19 0 -37 7q-26 8 -34 21.5t-14 45.5q-8 42 -18 79q-9 33 -47 95l-15 24t-13 23t-11.5 25.5t-6.5 23.5t-2.5 26t3.5 26q9 33 41 63q45 40 109.5 30.5t117.5 -63.5q2 -3 5 -7q39 -33 62 -95v0l3 -10
q1 0 1 -1v-1v-1v0q3 -7 5 -15q1 -5 3 -14v-5q3 -14 3 -24q1 -11 2 -18v-5v0v-13l-1 -1q-2 -35 -11 -68q-18 -68 -57 -108t-88 -40zM552 397q1 0 4 -1q35 -11 64 20t43 81q9 32 9 67l-1 19q-1 7 -2 17l-1 6q-1 6 -2 8q-1 5 -3 12l-2 5q-12 34 -33 61h-1l-16 18q-5 6 -6 7
q-36 37 -76 46t-68 -15q-19 -18 -23 -35q-4 -13 1.5 -31t12.5 -31t23 -39q43 -69 55 -111q10 -39 18 -83q3 -16 4 -21zM538 -56q-121 0 -229 79q-10 8 -12 20t5.5 22t19.5 12t22 -6q56 -41 116.5 -56.5t103.5 -11.5t85 20t56.5 25.5t23.5 16.5q10 7 22.5 5.5t20 -11t6 -22
t-11.5 -19.5q-4 -3 -11.5 -8.5t-31 -18t-48.5 -22t-62.5 -17.5t-74.5 -8zM727 15q-13 0 -26 2h-4q-12 1 -17 2t-13 3l-4 1q-16 4 -25 8q-8 2 -17 6l-18 9q-32 16 -58 37q-80 65 -86 138q-3 50 31 87q20 23 44 23q10 0 37 -6q42 -10 80 -16q34 -6 107 4q47 7 70 7
q52 0 84 -26q26 -21 40 -63q20 -58 -14 -112.5t-108 -81.5q-3 -2 -8 -3v0q-39 -19 -95 -19zM704 76h0.5h0.5v0h3q11 -1 19 -1q24 0 47 6v0l35 11q45 17 72 50t15 70q-8 25 -22 36q-15 12 -46 12q-19 0 -62 -6q-82 -11 -125 -4q-40 6 -84 17q-16 3 -20 4l-3 -3
q-17 -19 -15 -42q4 -48 64 -97q27 -22 58 -36q1 0 4 -1l2 -1l10 -4q8 -3 18 -5l7 -2q6 -2 8 -2q3 -1 11 -1z" />
    <glyph glyph-name="wendu" unicode="&#xe695;" 
d="M512 -70q-97 0 -167 67.5t-70 162.5q0 104 103 192v358q4 54 43 91t91 37q54 0 94 -38.5t40 -95.5v-358q103 -56 103 -192q0 -92 -70.5 -158t-166.5 -66zM512 800q-40 0 -65 -27.5t-25 -55.5v-371q0 -8 -0.5 -11.5t-3 -7.5t-8.5 -7q-35 -23 -62.5 -65.5t-27.5 -94.5
q0 -73 58 -129.5t134 -56.5q73 0 129.5 55t56.5 131q0 24 -2.5 42.5t-10.5 41.5t-25.5 42.5t-45.5 33.5q-12 0 -12 26v364q0 32 -24.5 58.5t-65.5 31.5zM557 19q-19 0 -19 13q-4 3 -2 8.5t3 7t5.5 5.5t5.5 5q30 5 42.5 13t21.5 31q1 1 5 6t5.5 6t7 3t8.5 -2q13 -6 13 -25
q-35 -61 -96 -71zM397 653h89q20 0 20 -19.5t-20 -19.5h-89v39zM403 493h90q19 0 19 -19.5t-19 -19.5h-90v39zM397 576h121q20 0 20 -19t-20 -19h-121v38z" />
    <glyph glyph-name="mimakejian-copy" unicode="&#xe6a2;" 
d="M872.5 432q-11.5 6 -18.5 -5l-75 -99q-43 31 -104 51l45 141q2 5 -1.5 10t-9.5 6q-15 4 -19 -9l-45 -140q-64 17 -136 18v144q0 6 -4 9.5t-9 3.5t-9 -3.5t-4 -9.5v-144q-65 -2 -123 -16l-39 140q-3 12 -15.5 8.5t-9.5 -15.5l38 -140q-57 -16 -100 -43l-64 89
q-7 11 -18.5 4.5t-4.5 -17.5l66 -91q-68 -52 -68 -115h26q0 46 44 85t119.5 62t164.5 23t164.5 -23t119 -62t43.5 -85h27q0 56 -54 103l78 103q7 11 -4.5 17zM451 267.5q0 -25.5 18 -43.5t43 -18t43 18t18 43.5t-18 43.5t-43 18t-43 -18t-18 -43.5z" />
    <glyph glyph-name="pm251" unicode="&#xe602;" 
d="M946 390.5q0 -117.5 -58 -217t-157.5 -157.5t-217 -58t-217 58t-157 157.5t-57.5 217t57.5 217t157 157.5t217 58t217 -58t157.5 -157.5t58 -217zM515.5 788q-108.5 0 -200 -53.5t-145 -145t-53.5 -200t53.5 -200t145 -145t200 -53.5t200 53.5t145 145t53.5 200
t-53.5 200t-145 145t-200 53.5zM160 289v177h77q65 0 65 -52t-72 -52h-18v-73h-52zM212 378h11q28 0 28 37q0 35 -28 35h-11v-72zM484 466v-177h-50v124l-34 -124h-29l-35 121v-121h-18v177h53l30 -107l30 107h53zM645 332v-43h-133v25q17 18 38 38q47 45 47 69q0 32 -25 32
q-31 0 -31 -38q0 -9 4 -26l-27 7q-3 12 -3 19q0 54 67 54q28 0 46 -14t18 -35q0 -25 -36 -54l-16 -13l-18 -15q-1 -2 -8 -6h77zM700 332q23 0 23 -22.5t-23 -22.5t-23 22.5t23 22.5zM876 466l-7 -37h-84l-7 -38q22 15 44 15q28 0 46 -16.5t18 -41.5q0 -29 -20 -45.5
t-54 -16.5q-62 0 -62 42q0 6 2 15l23 5q-2 -11 -2 -19q0 -27 28 -27q34 0 34 48q0 34 -29 34q-17 0 -30 -18l-21 5l17 95h104z" />
    <glyph glyph-name="pause" unicode="&#xe667;" 
d="M431 691q0 9 -6 15t-15 6h-154q-8 0 -14 -6t-6 -15v-614q0 -9 6 -15t14 -6h154q9 0 15 6t6 15v614zM390 97h-114v574h114v-574zM707 712h-155q-8 0 -14 -6t-6 -15v-614q0 -9 6 -15t14 -6h155q8 0 14 6t6 15v614q0 9 -6 15t-14 6zM686 97h-113v574h113v-574z" />
    <glyph glyph-name="play" unicode="&#xe6cd;" 
d="M824 406l-523 334q-12 8 -27 0q-14 -7 -14 -22v-672q0 -16 14 -23q4 -2 11 -2q4 0 13 5l526 336q11 7 11 22q0 11 -11 22zM312 95v578l452 -289z" />
    <glyph glyph-name="dangditianchong" unicode="&#xe60f;" 
d="M1001 36l-128 243q-19 36 -58 36h-120q-7 0 -12 -5.5t-5 -12.5t5 -12t12 -5h120q19 0 29 -18l128 -242q9 -17 -0.5 -34t-28.5 -17h-862q-19 0 -28.5 17t-0.5 34l128 242q10 18 29 18h120q7 0 12 5t5 12.5t-5 12.5t-12 5h-120q-39 0 -58 -36l-128 -243q-19 -34 0.5 -67.5
t57.5 -33.5h862q38 0 57 33.5t1 67.5zM512 97l13 17q11 13 27 35t53.5 79.5t65.5 110.5t51 119t23 115q-1 108 -69 184t-164 76t-164 -76t-68 -184q0 -49 22.5 -115t51 -119t65.5 -110.5t53 -79t27 -35.5zM429 608.5q0 35.5 24.5 61t58.5 25.5t58.5 -25.5t24.5 -61
t-24.5 -61t-58.5 -25.5t-58.5 25.5t-24.5 61z" />
    <glyph glyph-name="weather-yejianqing" unicode="&#xe619;" 
d="M825 671h-57l-22 57l-21 -57h-57l46 -36l-21 -65l53 40l54 -40l-22 65zM683 484h-41l-15 41l-15 -41h-41l33 -26l-15 -46l38 28l38 -28l-15 46zM823 279h-31l-12 31l-11 -31h-31l25 -20l-12 -35l29 21l29 -21l-11 35zM505 752q-141 -13 -237 -118.5t-96 -248.5
q0 -100 49 -185t134 -134.5t184 -49.5q86 0 168 37t132 99q-18 -2 -50 -2q-99 0 -183.5 49.5t-134 134.5t-49.5 185q0 131 83 233v0zM505 752z" />
    <glyph glyph-name="weather-copy" unicode="&#xe62a;" 
d="M82 360q-14 0 -21 12q-5 9 -2.5 18.5t11.5 13.5l91 53q6 4 15 3q-14 29 -17 63q-7 -5 -15 -5h-105q-9 0 -16 7t-7 16.5t7 16.5t16 7h105q8 0 15 -6q4 36 17 65l-1.5 -0.5l-1.5 -0.5q-7 0 -12 3l-91 53q-9 5 -11.5 14t2.5 17.5t14.5 11t17.5 -1.5l91 -53q7 -4 10 -12
q20 28 47 47q-8 3 -12 10l-53 91q-4 8 -1.5 17.5t11 14.5t18 2.5t13.5 -11.5l53 -91q4 -6 2 -15q30 13 65 17q-6 7 -6 15v105q0 9 7 16t16.5 7t16.5 -7t7 -16v-105q0 -8 -5 -15q33 -3 63 -17q-1 9 3 15l53 91q4 9 13.5 11.5t18 -2.5t11 -14.5t-2.5 -17.5l-52 -91
q-4 -7 -12 -10q27 -19 47 -47q3 8 10 12l91 53q8 4 17.5 1.5t14.5 -11t2.5 -17.5t-11.5 -14l-91 -53q-5 -3 -12 -3q-11 0 -18 10l-60 -34q-16 28 -44 44.5t-60 16.5q-48 0 -83 -35t-35 -83q0 -37 21 -67l-61 -42q-2 -11 -12 -17l-91 -52q-5 -4 -11 -4zM1024 226
q0 -81 -57.5 -138.5t-139.5 -57.5h-591q-65 0 -111 46t-46 111q0 66 47.5 112.5t113.5 45.5q14 68 68 112.5t125 44.5q16 0 31 -2q31 55 86.5 87.5t119.5 32.5q91 0 158.5 -61.5t76.5 -151.5q54 -23 86.5 -72t32.5 -109zM945 226q0 41 -25 72.5t-64 41.5l-30 8l1 39
q0 63 -46.5 109t-110.5 46q-49 0 -89.5 -28.5t-57.5 -74.5l-14 -36l-36 13q-21 7 -40 7q-49 0 -83.5 -34.5t-34.5 -83.5l1 -5l3 -60l-56 21q-14 5 -27 5q-32 0 -55 -23t-23 -56t23 -56t55 -23h591q49 0 83.5 35t34.5 83z" />
    <glyph glyph-name="jiangyuliang" unicode="&#xe617;" 
d="M1010 516q-2 14 -8 35q-9 32 -26 59q-33 55 -89 88t-121 34q-15 25 -38 51q-19 21 -46 42q-42 32 -85 49q-29 10 -61 16t-58 6q-119 0 -210 -74.5t-116 -189.5q-62 -21 -101.5 -75t-39.5 -121q0 -86 60.5 -146.5t145.5 -60.5q63 0 114 35q70 -35 147 -35q81 0 153 37
q60 -37 131 -37q98 0 170 66.5t80 163.5q1 13 1 22q0 16 -3 35zM943 461q-8 -68 -59.5 -115t-121.5 -47q-62 0 -111 38q-11 9 -25.5 7t-23.5 -13v-1q-58 -31 -123 -31q-70 0 -131 34q-15 9 -31 2q-9 -2 -15 -7q-37 -29 -85 -29q-56 0 -96 40t-40 96.5t40 97t96 40.5
q60 0 101 -44q10 -11 24 -11.5t25 9t11.5 24t-9.5 25.5q-57 62 -142 66q26 82 95 133t157 51q6 0 22 -1q28 -2 57 -11q52 -17 96 -56q22 -19 35 -37q-6 -2 -18 -7q-1 0 -22 -11q-2 -1 -8.5 -4t-9.5 -5q-19 -11 -32 -22q-11 -10 -12 -24t8 -25t23.5 -12.5t25.5 8.5q6 5 19 13
q26 17 56 24q24 6 43 6q50 0 92 -25t65 -67q14 -25 20 -50q0 -1 0.5 -3.5t0.5 -4.5q4 -20 4 -31q0 -7 -1 -20zM200 -28q0 -9 -5.5 -15.5t-13.5 -6.5t-14 6.5t-6 15.5v173q0 9 6 15.5t14 6.5t13.5 -6.5t5.5 -15.5v-173zM317 -52q0 -9 -5.5 -15.5t-13.5 -6.5t-14 6.5t-6 15.5
v173q0 9 6 15.5t14 6.5t13.5 -6.5t5.5 -15.5v-173zM434 -80q0 -9 -5.5 -15.5t-13.5 -6.5t-14 6.5t-6 15.5v173q0 9 6 15.5t14 6.5t13.5 -6.5t5.5 -15.5v-173zM551 -106q0 -9 -5.5 -15.5t-14 -6.5t-14 6.5t-5.5 15.5v173q0 9 5.5 15.5t14 6.5t14 -6.5t5.5 -15.5v-173z
M668 -80q0 -9 -5.5 -15.5t-14 -6.5t-14 6.5t-5.5 15.5v173q0 9 5.5 15.5t14 6.5t14 -6.5t5.5 -15.5v-173zM785 -52q0 -9 -5.5 -15.5t-14 -6.5t-14 6.5t-5.5 15.5v173q0 9 5.5 15.5t14 6.5t14 -6.5t5.5 -15.5v-173zM902 -28q0 -9 -5.5 -15.5t-14 -6.5t-14 6.5t-5.5 15.5v173
q0 9 5.5 15.5t14 6.5t14 -6.5t5.5 -15.5v-173z" />
    <glyph glyph-name="fengxiang" unicode="&#xe65c;" 
d="M550 376q3 46 -28 79q-49 52 -154 52q-85 0 -148 -37q-10 -5 -20 -13l-60 -58q-34 -44 -49.5 -92.5t-8.5 -89.5q9 -52 53 -80q35 -22 67 -22q24 0 48.5 14t39 28t41.5 42q57 62 93 83q38 21 81 42q28 14 36 22.5t9 29.5v0zM494 382l-14 -7q-44 -22 -84 -45
q-43 -25 -106 -93q-22 -23 -33 -33.5t-27 -21t-28 -10.5q-16 0 -37 13q-15 10 -22 25t-7 35q1 46 34 98t78 79q50 28 120 28q80 0 113 -34q13 -14 13 -34v0zM822 230q-82 19 -118 40q-37 21 -77 48q-31 21 -44 21q-9 0 -24 -8q-57 -29 -59 -97q-2 -62 40.5 -132t102.5 -104
q9 -5 19 -10l76 -22q25 -4 50 -4q46 0 85 11.5t69 42t31 75.5q1 22 -3 39.5t-10.5 30t-19.5 23t-23 16.5t-29.5 12.5t-31 9.5t-34.5 8v0zM917 93q-1 -33 -33 -53q-37 -22 -96 -22q-67 0 -117 29q-47 27 -81 84q-35 55 -34 101q1 34 26 48q4 -3 13 -9q42 -28 81 -50
q43 -25 133 -46q68 -16 87 -29q22 -15 21 -53v0zM585 510q0 -43 -4 -91q-2 -31 1.5 -42.5t21.5 -22.5q27 -18 57 -18q47 0 91.5 41t71.5 100.5t27 115.5q0 21 -5 44l-27 82q-26 53 -68.5 90t-91.5 37v0q-28 0 -54 -13q-23 -12 -37.5 -26t-20.5 -31t-8.5 -31.5t2 -37t8 -36
t11.5 -39.5q25 -80 25 -122v0zM614 649q-20 66 -19 89q2 27 36 45q33 17 71 -8q25 -16 46 -46q21 -31 33.5 -67.5t12.5 -68.5q0 -69 -47 -137q-20 -30 -43 -47t-43 -17q-12 0 -24 8q0 4 1 15q3 50 3 95q0 50 -27 139v0z" />
    <glyph glyph-name="tongbaoyujing" unicode="&#xe65b;" 
d="M932 173h-60v301q0 134 -85.5 234.5t-214.5 121.5q0 1 0.5 3t0.5 3q0 25 -17.5 42.5t-42.5 17.5t-42.5 -17.5t-17.5 -42.5q0 -1 0.5 -2.5t0.5 -3.5q-129 -21 -214.5 -121.5t-85.5 -234.5v-300h-60q-25 0 -42.5 -18t-17.5 -42q0 -26 17 -43t43 -17h837q25 0 42.5 17.5
t17.5 42.5q1 24 -16.5 41.5t-42.5 17.5v0zM514 -128q49 0 84.5 35t35.5 86h-240q0 -51 35 -86t85 -35v0zM514 -128z" />
    <glyph glyph-name="lang" unicode="&#xe9f6;" 
d="M97 -40q8 5 24 13t64.5 24.5t96.5 23.5t114 1t124 -33q12 -4 33 -11.5t80.5 -21t112.5 -18t113.5 8t98.5 45.5v336q-2 -7 -6.5 -17t-21 -36t-36 -45t-52.5 -32.5t-70 -9.5q-2 0 -4.5 0.5t-11.5 3t-15.5 6t-16 10t-13 15.5t-6 22t3.5 30q1 1 1.5 3t4 7t7 9.5t10.5 9
t14.5 6.5t18 1t22.5 -6q1 10 -9 20.5t-27.5 17t-37.5 6.5t-43 -13.5t-40 -39.5q-1 -4 -4 -10t-12.5 -21.5t-20.5 -27.5t-29 -22.5t-37 -11.5q-32 -3 -69 15.5t-58 52.5t-8 68q1 1 2 3l4 8t7.5 11t12 10t16.5 7.5t22.5 2t28.5 -5.5q21 -9 24 -30q2 0 2 8t-3 19.5t-11.5 25
t-22.5 26t-36 22t-52.5 13t-72.5 -0.5q-56 -7 -105.5 -39t-83 -82t-51.5 -110.5t-12.5 -130.5t36.5 -136z" />
    <glyph glyph-name="yubao" unicode="&#xe72d;" 
d="M512 832q-91 0 -174.5 -35.5t-143.5 -95.5t-95.5 -143.5t-35.5 -174.5t35.5 -174.5t95.5 -143.5t143.5 -95.5t174.5 -35.5t174.5 35.5t143.5 95.5t95.5 143.5t35.5 174.5t-35.5 174.5t-95.5 143.5t-143.5 95.5t-174.5 35.5v0zM512 -13q-108 0 -199 53t-144 144t-53 199
t53 199t144 144t199 53t199 -53t144 -144t53 -199t-53 -199t-144 -144t-199 -53v0zM512 607q-15 0 -26 -10.5t-11 -26.5v-243q0 -16 11 -27t26 -11t26 11t11 27v243q0 16 -11 26.5t-26 10.5v0zM512 233q-15 0 -26 -11t-11 -26.5t11 -26.5t26 -11t26 11t11 26.5t-11 26.5
t-26 11v0zM512 233z" />
    <glyph glyph-name="qiya" unicode="&#xe735;" 
d="M832 357q0 87 -43 161t-116.5 116.5t-160.5 42.5t-160.5 -42.5t-116.5 -116.5t-43 -161q0 -11 8 -18.5t19 -7.5t18.5 7.5t7.5 18.5q0 111 78.5 189t188.5 78t188.5 -78t78.5 -189q0 -11 7.5 -18.5t18.5 -7.5t19 7.5t8 18.5v0zM471 346l-115 98q-8 7 -19 6.5t-18.5 -9
t-6.5 -19.5t9 -18l116 -100q-4 -12 -4 -26q0 -33 23 -56t56 -23t56 23t23 56t-23 56t-56 23q-22 0 -41 -11zM776 -11q89 64 139 161t50 207q0 93 -35.5 176.5t-96.5 144.5t-145 97t-176 36t-176 -36t-145 -97t-96.5 -144.5t-35.5 -176.5q0 -108 48 -203.5t134 -159.5
q9 -7 20 -5t17.5 10.5t5 19.5t-10.5 18q-76 56 -118.5 140.5t-42.5 179.5q0 109 53.5 201t145.5 145.5t201 53.5t201 -53.5t145.5 -145.5t53.5 -201q0 -97 -44 -182.5t-123 -142.5q-9 -6 -10.5 -17t5 -20t17 -10.5t19.5 4.5v0v0z" />
    <glyph glyph-name="tflj" unicode="&#xe61b;" 
d="M212 466h543q76 0 129 52.5t53 128t-52.5 128.5t-128.5 53v-61q64 -12 92.5 -41t28.5 -79t-46 -85.5t-110 -35.5h-509q-13 0 -21.5 -8.5t-8.5 -21.5q1 -13 9.5 -21.5t20.5 -8.5v0zM364 586h362q13 0 21.5 8.5t8.5 21.5t-8.5 22t-21.5 9h-362q-13 0 -22 -9t-9 -22
q0 -12 9 -21t22 -9v0zM756 405h-634q-13 0 -21.5 -9t-8.5 -21.5t8.5 -21.5t21.5 -9h599q64 0 110 -35.5t46 -84.5q0 -54 -45 -87t-136 -33v-61h60q76 0 128.5 53t52.5 128t-52.5 128t-128.5 53v0zM514 285v0h-241q-13 0 -22 -9t-9 -22t9 -21.5t22 -8.5h241q25 0 43 -17.5
t18 -43.5q0 -25 -17.5 -43t-43.5 -18v-60q50 0 85.5 35t35.5 85q0 51 -35 87t-86 36v0zM514 285z" />
    <glyph glyph-name="shujuguanlisvg55" unicode="&#xe700;" 
d="M908 896h-792q-48 0 -82 -34t-34 -82v-792q0 -48 34 -82t82 -34h792q48 0 82 34t34 82v792q0 48 -34 82t-82 34zM939 -12q0 -13 -9 -22t-22 -9h-792q-13 0 -22 9t-9 22v792q0 13 9 22t22 9h792q12 0 21.5 -7.5t9.5 -12.5v-793v-10zM498 766h28q3 -1 4 -1q37 -6 64 -32
t33 -62q1 -3 3 -65q0 -3 1 -9q84 64 95 72q12 9 28 9h71h71v-58q-1 -1 -4 -1h-5h-38h-45.5h-38.5q-7 0 -11 -4q-58 -43 -119 -89q-5 -3 -5 -8v-206q0 -4 4 -8q43 -41 53 -100q10 -61 -22 -117t-90 -76q-39 -10 -70 -9.5t-46 5.5q-63 19 -96.5 72.5t-26.5 116.5t54 108
q3 3 3 4v37q-90 -67 -94 -71q-13 -10 -30 -10h-141v60h2.5h3h2.5h122q8 0 14 4q20 15 58.5 43.5t56.5 42.5q7 5 7 14q-1 155 0 217q1 78 70 111q3 1 34 10zM453 465q1 0 1.5 0.5t1.5 0.5q74 56 112 84q3 2 3 6q0 81 -1 98q-1 30 -29 45.5t-55 1.5q-33 -17 -33 -57v-172v-7z
" />
    <glyph glyph-name="weather-yin" unicode="&#xe693;" 
d="M748 441q-17 83 -83 137.5t-153 54.5q-69 0 -125.5 -35t-85.5 -93q-75 -9 -123.5 -63t-48.5 -128q0 -79 56 -135.5t135 -56.5h415q67 0 113.5 46.5t46.5 113.5q0 62 -43.5 108.5t-103.5 50.5z" />
    <glyph glyph-name="lifangti" unicode="&#xe615;" 
d="M440 358l-324 175q-9 5 -20 5q-18 0 -31.5 -14t-13.5 -35v-342q0 -26 13 -48.5t35 -34.5l323 -175q11 -6 21 -6q18 0 31.5 14.5t13.5 35.5v341q0 27 -13 49.5t-35 34.5zM415 -24l-282 152q-9 6 -9 19v299l281 -152q10 -6 10 -20v-298zM952 538q-11 0 -20 -5l-323 -176
q-23 -12 -35.5 -34.5t-12.5 -49.5v-340q0 -21 13.5 -35.5t31.5 -14.5q11 0 20 5l323 176q22 12 35 34.5t13 48.5v342q0 21 -13.5 35t-31.5 14zM925 148q0 -15 -10 -20l-282 -152v297q0 15 10 19l282 154v-298zM902 613q24 12 21 35q3 22 -21 35l-329 171q-21 12 -49 12v0v0
q-34 -4 -49 -12l-330 -171q-23 -11 -21 -35q-2 -24 21 -35l329 -171q21 -12 49 -12h1h1q1 0 9.5 1t21 4t18.5 7zM523 503q-8 0 -16 3l-272 142l272 142q8 3 17 3t16 -3l272 -142l-273 -142q-6 -3 -16 -3z" />
    <glyph glyph-name="iconfontzhizuobiaozhun13" unicode="&#xe60c;" 
d="M745 298v-227q0 -8 -4 -8q-3 0 -5 1l-201 119q-9 6 -21 6t-22 -5l-203 -121q-3 0 -5 1q-1 2 -1 4v582q0 23 15.5 39t37.5 16h355q22 0 37.5 -16t15.5 -39v-53h35v53q0 38 -26 64.5t-62 26.5h-355q-36 0 -62 -26.5t-26 -64.5v-582q0 -17 12 -29q11 -12 27 -12q7 0 14 3
l208 122q2 1 5 1q1 0 4 -1l200 -118q9 -7 23 -7q16 0 27 11.5t11 31.5v228h-34zM779 456h-102v105h-35v-105h-103v-36h103v-105h35v105h102v36z" />
    <glyph glyph-name="weather-leaf" unicode="&#xe6b8;" 
d="M913 139q-29 4 -51.5 9t-33.5 8.5t-18 7t-8 4.5l-2 2q17 97 -27.5 206.5t-126.5 176.5q-40 32 -95 49.5t-109.5 25.5t-111.5 18.5t-116.5 40t-107.5 79.5q-8 8 -13 -13q-12 -62 13 -209q43 -255 153 -394q22 -28 46 -50q45 -40 97 -64t95.5 -30.5t86.5 -4.5t70 9t46 15
q20 9 40 24.5t29 25t9 10.5q38 -12 69.5 -18t43.5 -6l13 -1q14 -1 23.5 17.5t6 38.5t-20.5 23zM721 130q-77 23 -156.5 70.5t-133 93.5t-104 99.5t-66.5 73.5t-24 32v0q7 -9 21.5 -24t63.5 -58t103 -81t140 -83t176 -75q0 -12 -6 -26.5t-14 -21.5z" />
    <glyph glyph-name="weather-zhongdaodayu" unicode="&#xe668;" horiz-adv-x="1085" 
d="M886 182h-687v0q-83 0 -141 58t-58 140q0 63 35 113.5t92 72.5q2 65 49 111t113 46q20 0 41 -5q42 76 118 122t167 46q131 0 225.5 -91.5t98.5 -223.5q64 -18 104.5 -70.5t40.5 -120.5q0 -82 -58 -140t-140 -58v0zM127 92q6 12 19 15.5t24.5 -3.5t15 -20.5t-3.5 -25.5
l-32 -58q-7 -12 -19.5 -16t-24 3t-15 21t3.5 26zM288 2q6 12 19 15.5t24.5 -3.5t15 -20.5t-3.5 -25.5l-32 -58q-6 -13 -19 -16.5t-24.5 3.5t-15 20.5t3.5 25.5zM485 92q7 12 19.5 15.5t24 -3.5t15 -20.5t-2.5 -25.5l-32 -58q-7 -12 -20 -16t-24.5 3t-14.5 21t3 26zM646 2
q7 12 20 15.5t24.5 -3.5t14.5 -20.5t-3 -25.5l-32 -58q-7 -13 -19.5 -16.5t-24 3.5t-15 20.5t2.5 25.5zM844 27q6 12 19 15.5t24.5 -3.5t15 -20.5t-3.5 -25.5l-32 -58q-6 -12 -19 -16t-24.5 3t-15 20.5t3.5 26.5z" />
    <glyph glyph-name="weather-baoyu" unicode="&#xe62d;" 
d="M786 255h-549v0q-66 0 -112.5 46.5t-46.5 112.5q0 50 28 90t73 58q1 52 39 89t91 37q16 0 32 -4q34 61 95 97.5t133 36.5q106 0 181.5 -73t78.5 -179q51 -14 83.5 -56t32.5 -96q0 -66 -46.5 -112.5t-112.5 -46.5v0zM225 154l-77 -158q-6 -12 -1.5 -24t16 -17.5t23.5 -1.5
t18 16l77 158q5 11 1 23t-15.5 18t-24 1.5t-17.5 -15.5v0zM392 154l-76 -158q-6 -12 -1.5 -24t16 -17.5t23.5 -1.5t18 16l76 158q6 11 1.5 23t-16 18t-23.5 1.5t-18 -15.5v0zM560 154l-77 -158q-5 -12 -1 -24t15.5 -17.5t24 -1.5t17.5 16l77 158q5 11 1 23t-15.5 18
t-23.5 1.5t-18 -15.5v0zM728 154l-77 -158q-6 -12 -1.5 -24t16 -17.5t23.5 -1.5t18 16l77 158q5 11 1 23t-15.5 18t-24 1.5t-17.5 -15.5v0z" />
    <glyph glyph-name="chuanzhen" unicode="&#xe608;" 
d="M147 575h60v187q0 24 18 41v0q16 17 40 17h480q24 0 41 -17v0q16 -18 16 -41v-187h62q32 0 56 -23q0 -1 0.5 -1.5l0.5 -0.5q22 -22 22 -56v-252q0 -34 -23 -57q-24 -23 -56 -23h-62v-154q0 -24 -16 -40v0q-18 -17 -42 -17h-479q-24 0 -40 17h-1q-17 16 -17 40v154h-60
q-34 0 -57 23l-2 2q-22 23 -22 55v252q0 34 24 58q23 23 57 23v0zM249 308v-125v-3v-172q0 -7 5 -10v-1q4 -4 11 -4h479q7 0 11 4v1q5 3 5 10v298q0 7 -5 11v0q-4 4 -11 4h-479q-7 0 -11 -4v0q-3 -3 -5 -9v0zM207 204v102v4v3q0 24 18 40v0q16 17 40 17h480q24 0 41 -17v0
q16 -17 16 -40v-109h62q16 0 26 11q11 10 11 27v252q0 16 -10 26l-1 1q-10 11 -26 11h-717q-16 0 -28 -11q-11 -10 -11 -27v-252q0 -15 11 -26v-1q12 -11 28 -11h60zM745 778h-480q-6 0 -11 -5v0v0q-5 -4 -5 -11v-187h511v187q0 7 -5 11h1h-1q-3 5 -10 5v0z" />
    <glyph glyph-name="icon08" unicode="&#xe731;" 
d="M552 686v-347h-347q8 -128 102 -216.5t223 -88.5q89 0 164 43.5t119 119t44 163.5q0 130 -88.5 224t-216.5 102v0zM516 734q-95 0 -175 -46.5t-127 -127t-47 -174.5h349v348v0z" />
    <glyph glyph-name="poumian2" unicode="&#xe6b4;" 
d="M576 736h32v-704h-32v704zM672 640v-32h32h126h34v-384h-34h-126h-32v-32h224v448h-224zM128 384h32v-96h-32v96zM128 192h32h32v32h-64v-32zM480 608h32v32h-96v-32h36h28zM128 544h32v-96h-32v96zM128 640h64v-32h-64v32zM256 640h96v-32h-96v32zM416 224v-32h96v32
h-60h-36zM256 224h96v-32h-96v32z" />
    <glyph glyph-name="weather-duoyunzhuanqing" unicode="&#xe60b;" horiz-adv-x="1304" 
d="M1100 -128v0h-710h-1q-84 0 -143.5 59.5t-59.5 142.5q0 66 38 118t98 73q2 69 51 116.5t118 47.5q21 0 42 -5q44 79 123 126.5t173 47.5q91 0 168.5 -44.5t123 -121t47.5 -167.5q60 -21 97.5 -73t37.5 -117q0 -84 -59.5 -143.5t-143.5 -59.5zM650 720q-7 -12 -18.5 -16
t-21.5 1l-1 1q-10 6 -12 18t5 24l42 73q7 11 18.5 15.5t20.5 -1.5l2 -1q10 -5 12 -17.5t-5 -23.5zM457 747h-2q-11 0 -19 9.5t-8 23.5v83q0 14 8 23.5t19 9.5h2q11 0 19 -9.5t8 -23.5v-83q0 -14 -8 -23.5t-19 -9.5zM456 673q99 0 168 -72q-76 -44 -126 -115h-14
q-80 0 -142 -50.5t-77 -128.5q-42 60 -42 133q0 96 68.5 164.5t164.5 68.5zM302 705q-10 -5 -21.5 -1t-18.5 16l-42 73q-6 11 -4 23.5t11 17.5l2 1q10 6 21.5 1.5t18.5 -15.5l41 -73q7 -12 5 -24t-12 -18zM190 593q-6 -10 -18 -12t-24 5l-73 42q-11 6 -15.5 18t1.5 21l1 2
q5 9 17.5 11.5t23.5 -4.5l73 -42q12 -7 16 -18.5t-1 -21.5zM149 441v-2q0 -11 -9.5 -19t-23.5 -8h-83q-14 0 -23.5 8t-9.5 19v2q0 11 9.5 19t23.5 8h83q14 0 23.5 -8t9.5 -19zM148 294q12 7 24 5t18 -12l1 -1q5 -10 1 -21.5t-16 -18.5l-73 -42q-11 -7 -23.5 -5t-17.5 12
l-1 2q-6 9 -1.5 20.5t15.5 18.5z" />
    <glyph glyph-name="1" unicode="&#xe610;" 
d="M861 499v18q0 108 -76.5 185t-184.5 77q-75 0 -137 -38t-95 -102q-27 9 -52 9q-63 0 -107.5 -44.5t-44.5 -106.5q0 -11 4 -33q-59 -19 -96.5 -70t-37.5 -116q0 -81 57.5 -138t137.5 -57h544q90 0 153.5 63.5t63.5 153.5q2 65 -33.5 119.5t-95.5 79.5zM776 125h-545
q-62 0 -107 44.5t-45 106.5q0 49 29 89t76 56l36 13l-7 37q-2 8 -2 24q0 45 32 76.5t77 31.5q21 0 36 -7l36 -13l18 35q28 54 80 85.5t113 31.5q90 0 153.5 -63.5t63.5 -153.5v-10v-4l-2 -31l29 -12q47 -21 76 -64.5t29 -94.5q-2 -74 -53 -125.5t-123 -51.5zM515 518
q23 0 39.5 -16.5t16.5 -39.5t-16.5 -39.5t-39.5 -16.5t-39.5 16.5t-16.5 39.5t16.5 39.5t39.5 16.5zM515 555q-38 0 -65 -27.5t-27 -65t27 -65t65 -27.5t65 27.5t27 64.5q0 39 -27 66t-65 27v0zM650 177h-271q-16 0 -28 12t-12 28v52q0 7 4 18q8 19 32 40.5t66 33.5
q18 6 32 -5q18 -12 40 -12t40 12q17 10 32 5q43 -11 66 -33t32 -41q3 -5 3 -18v-52q3 -16 -8 -28t-28 -12zM453 327v0q-54 -15 -77 -56v-54q0 -4 3 -4h271q4 0 4 4v52q-25 43 -76 58v0h-4q-27 -18 -60 -18t-59 18h-2zM670 370v0v0zM775 313q-17 17 -43 33.5t-44 23.5
q28 12 40.5 43.5t2.5 63.5q-9 31 -33 48t-57 17q-8 0 -13 -5.5t-5 -12.5q0 -8 5.5 -13t12.5 -5q43 0 56 -40q6 -18 -1.5 -36t-21.5 -25q-10 -4 -16 -14t-6 -21v0v0v0v0q0 -12 7 -22t18 -14q13 -4 35 -18t37 -29q18 -17 20 -47h-30q-9 0 -13.5 -5t-4.5 -13t4.5 -13t13.5 -5
h28q15 0 26 11q11 12 9 25q0 43 -27 73zM255 313q17 17 42.5 33.5t43.5 23.5q-28 12 -40.5 43.5t-2.5 63.5q9 31 33 48t57 17q8 0 13 -5.5t5 -12.5q0 -8 -5.5 -13t-12.5 -5q-43 0 -56 -40q-6 -18 1.5 -36t22.5 -25q9 -4 15 -14t6 -21v0v0v0v0q0 -12 -7 -22t-18 -14
q-12 -4 -34 -18t-38 -29q-17 -17 -20 -47h31q8 0 13 -5t5 -13t-5 -13t-13 -5h-29q-15 0 -25.5 11t-10.5 25q2 44 29 73z" />
    <glyph glyph-name="dingyue1" unicode="&#xe609;" 
d="M751 468h102q7 0 12 -5t5 -12t-5 -12t-12 -5h-102v-103q0 -8 -5 -13t-12 -5t-12 5t-5 13v103h-103q-7 0 -12 5t-5 12t5 12t12 5h103v103q0 7 5 12t12 5t12 -5t5 -12v-103v0zM290 571h171q7 0 12 -5t5 -12t-5 -12.5t-12 -5.5h-171q-7 0 -12 5t-5 12.5t5 12.5t12 5v0z
M290 399h171q7 0 12 -5t5 -12t-5 -12t-12 -5h-171q-7 0 -12 5t-5 12t5 12t12 5v0zM580 266v0v-207l-195 170q-8 5 -17 1l-197 -168v629q0 8 5 12.5t12 4.5h375q7 0 12 -5t5 -12v-52q0 -7 5 -12t12 -5t12 5.5t5 12.5v51q0 22 -15 36.5t-36 14.5h-375q-21 0 -36 -14.5
t-15 -36.5v-629q0 -20 12 -29t32 -7l195 166q180 -155 181 -156q2 -2 3.5 -3t5.5 -3q4 -1 14 -3q9 1 22 8q9 11 10.5 14t1.5 13v204v0q0 6 -5 11t-11.5 5t-11.5 -5t-6 -11v0z" />
    <glyph glyph-name="k" unicode="&#xe6a3;" 
d="M493 771v-276h2l139 276h199l-181 -315l203 -404h-213l-110 250l-39 -60v-190h-187v719h187z" />
    <glyph glyph-name="icon-week" unicode="&#xe633;" 
d="M512 851q95 0 181.5 -37t149 -99.5t99.5 -149t37 -181.5t-37 -181.5t-99.5 -149t-149 -99.5t-181.5 -37t-181.5 37t-149 99.5t-99.5 149t-37 181.5t37 181.5t99.5 149t149 99.5t181.5 37v0zM512 896q-139 0 -257 -68.5t-186.5 -186.5t-68.5 -257t68.5 -257t186.5 -186.5
t257 -68.5t257 68.5t186.5 186.5t68.5 257t-68.5 257t-186.5 186.5t-257 68.5v0v0zM383 196l100 -101l259 418l-33 34l14 124q-15 4 -72.5 5t-150 -5.5t-166.5 -22.5q-32 -165 -47 -251q89 52 264 70z" />
    <glyph glyph-name="hongwaiduishe" unicode="&#xe63e;" horiz-adv-x="1025" 
d="M512 896q-104 0 -199 -40.5t-163.5 -109t-109 -163.5t-40.5 -199t40.5 -199t109 -163.5t163.5 -109t199 -40.5t199 40.5t163.5 109t109 163.5t40.5 199t-40.5 199t-109 163.5t-163.5 109t-199 40.5zM860 36q-68 -68 -157 -105q-91 -39 -191 -39t-191 39q-89 37 -157 105
t-105 157q-39 91 -39 191t39 191q37 89 105 157t157 105q91 39 191 39t191 -39q89 -37 157 -105t105 -157q39 -91 39 -191t-39 -191q-37 -89 -105 -157zM473 346l-37 -254h148l-37 254h-74zM442 380q-27 28 -27 67.5t27 67.5q6 6 6 14.5t-6 14.5t-14 6t-14 -6
q-40 -40 -40 -96.5t40 -96.5q6 -6 14 -6t14 6t6 14.5t-6 14.5zM606 544q-6 6 -14.5 6t-14.5 -6t-6 -14.5t6 -14.5q28 -28 28 -67.5t-28 -67.5q-6 -6 -6 -14.5t6 -14.5t14.5 -6t14.5 6q40 40 40 96.5t-40 96.5zM669 606q-6 6 -14.5 6t-14.5 -6t-6 -14.5t6 -14.5
q53 -53 53 -129t-53 -130q-6 -6 -6 -14.5t6 -14.5t14.5 -6t14.5 6q65 66 65 158.5t-65 158.5zM327 448q0 76 53 129q6 6 6 14.5t-6 14.5t-14.5 6t-14.5 -6q-65 -66 -65 -158.5t65 -158.5q6 -6 14.5 -6t14.5 6t6 14.5t-6 14.5q-53 54 -53 130zM231 447.5q0 115.5 82 197.5
q6 6 6 14.5t-6 14.5t-14.5 6t-14.5 -6q-94 -94 -94 -226.5t94 -226.5q6 -6 14.5 -6t14.5 6t6 14.5t-6 14.5q-82 82 -82 197.5zM736 674q-6 6 -14.5 6t-14.5 -6t-6 -14.5t6 -14.5q82 -82 82 -197.5t-82 -197.5q-6 -6 -6 -14.5t6 -14.5t14.5 -6t14.5 6q94 94 94 226.5
t-94 226.5zM510 448zM462 447.5q0 19.5 14 33.5t34 14t34 -14t14 -33.5t-14 -33.5t-34 -14t-34 14t-14 33.5z" />
    <glyph glyph-name="tu" unicode="&#xe64d;" 
d="M315.5 553q-11.5 0 -20 -8.5t-8.5 -19.5v-280q0 -12 8.5 -20t20 -8t19.5 8t8 20v280q0 11 -8 19.5t-19.5 8.5zM539.5 469q-11.5 0 -20 -8.5t-8.5 -19.5v-168q0 -12 8.5 -20t20 -8t19.5 8t8 20v168q0 11 -8 19.5t-19.5 8.5zM735 357q0 -12 8.5 -20t20 -8t19.5 8t8 20v224
q0 11 -8 19.5t-19.5 8.5t-20 -8.5t-8.5 -19.5v-224zM735 833l-224 -168l-224 84l-224 -140v-672l224 140l224 -84l224 168l224 -168v672zM903 91l-168 126l-224 -168l-224 84l-168 -105v560l168 105l224 -84l224 168l168 -126v-560z" />
    <glyph glyph-name="leida" unicode="&#xe640;" 
d="M512 885q-102 0 -195 -39.5t-160 -106.5t-106.5 -160t-39.5 -195t39.5 -195t106.5 -160t160 -106.5t195 -39.5t195 39.5t160 106.5t106.5 160t39.5 195t-39.5 195t-106.5 160t-160 106.5t-195 39.5zM489 -69q-114 6 -211 64t-155.5 155t-65.5 211h93q5 -16 18 -28t30 -15
q22 -103 102 -173.5t187 -76.5v-137h2zM489 111q-89 7 -155.5 66t-87.5 146q21 9 34 38h120q7 -34 31 -58t58 -31v-161zM489 496q-34 -7 -58 -31t-31 -58h-120q-11 25 -34 38q19 86 86 145t157 67v-161zM489 703q-106 -7 -186 -77t-103 -174q-16 -3 -29 -15t-19 -28h-95
q7 113 65.5 209.5t155.5 154.5t211 64v-134zM535 837q114 -6 211 -64t155.5 -155t65.5 -211h-136q-7 82 -53 152q7 14 7 30q0 29 -19.5 48.5t-48.5 19.5q-16 0 -30 -7q-66 46 -152 53v134zM535 655q64 -7 120 -39q-6 -14 -6 -27q0 -29 19.5 -48.5t48.5 -19.5q13 0 27 6
q36 -56 39 -120h-162q-7 34 -30.5 58t-58.5 31v159h3zM535 272q34 7 58 31t31 58h161q-9 -99 -79.5 -170.5t-170.5 -79.5v161zM535 -69v137q118 8 202.5 92t93.5 201h136q-7 -114 -65.5 -211t-155.5 -155t-211 -64z" />
    <glyph glyph-name="nengjiandu" unicode="&#xe95b;" 
d="M512 16q-77 0 -154.5 29.5t-136 74t-104.5 95t-70.5 96t-24.5 73.5q0 37 24.5 85t70.5 97t105 91t135.5 68.5t154.5 26.5q77 0 154.5 -29.5t136 -74t104.5 -95t70.5 -96t24.5 -73.5q0 -30 -24.5 -75.5t-70.5 -96t-104.5 -94.5t-136 -73t-154.5 -29v0v0zM512 690
q-68 0 -135 -22t-118.5 -56.5t-92 -75.5t-62 -81t-21.5 -71q0 -24 21.5 -61.5t62 -79.5t91.5 -79.5t119 -61.5t135 -24t135 24.5t119 62t91.5 80t62 80t21.5 59.5q0 23 -21.5 60.5t-62 80t-91.5 79.5t-119 61.5t-135 24.5v0v0zM512 200q-76 0 -130 54t-54 130t54 130t130 54
t130 -54t54 -130t-54 -130t-130 -54v0v0zM512 507q-51 0 -87 -36t-36 -87t36 -87t87 -36t87 36t36 87t-36 87t-87 36v0v0z" />
    <glyph glyph-name="weixingyuntu" unicode="&#xe604;" 
d="M829 44v0v0h-605q-93 0 -158 65.5t-65 157.5q0 66 35 120.5t93 81.5q-1 13 -1 21q0 106 74.5 180.5t180.5 74.5q70 0 128.5 -35t92.5 -93q86 -5 153.5 -58t91.5 -135q73 -8 122 -61.5t49 -127.5q0 -79 -56 -135t-135 -56v0zM829 363q-15 0 -33 -5q-3 50 -31 96v4h-2
q-28 44 -73.5 70t-99.5 26q-6 0 -27 -3q-19 58 -68.5 94t-111.5 36q-79 0 -135 -56t-56 -135q0 -32 12 -66q-59 -7 -99.5 -51.5t-40.5 -105.5q0 -66 47 -112.5t113 -46.5v0h605v0q53 0 90 37t37 90t-37 90.5t-90 37.5z" />
  </font>
</defs>
</svg>
